<svg width="417" height="417" viewBox="0 0 417 417" fill="none" xmlns="http://www.w3.org/2000/svg">
<path d="M209.69 0.0146484C210.788 0.00981446 211.887 0.00498047 213.019 0C219.159 0.0131074 225.102 0.333867 231.19 1.13965C230.86 2.12965 230.53 3.11965 230.19 4.13965C229.553 4.17405 228.916 4.20845 228.26 4.2439C176.59 7.22405 134.456 27.2202 99.5295 65.3506C97.8187 67.3898 96.4185 69.268 95.0061 71.4912C94.4067 72.3652 93.8073 73.2392 93.1897 74.1396C92.5297 74.1396 91.8697 74.1396 91.1897 74.1396C90.937 74.8396 90.6844 75.5396 90.4241 76.2607C89.0436 79.4803 87.3266 82.2512 85.4397 85.2021C72.8925 105.206 64.6075 127.781 61.1897 151.14C61.0961 151.777 61.0026 152.415 60.9062 153.072C55.9253 191.467 63.0378 236.379 86.1897 268.14C87.1601 269.653 88.1189 271.173 89.0647 272.702C89.4746 273.363 89.8845 274.025 90.3069 274.706C90.5982 275.179 90.8895 275.652 91.1897 276.14C90.7953 274.806 90.399 273.473 90.0022 272.14C89.7289 271.218 89.4556 270.296 89.1741 269.347C88.4861 267.105 87.7645 264.874 87.0178 262.651C80.9498 244.473 78.0023 225.907 78.0044 206.767C78.0022 204.513 77.9839 202.26 77.9651 200.007C77.9621 198.559 77.9602 197.111 77.9592 195.663C77.9551 194.363 77.951 193.063 77.9468 191.723C78.1864 188.187 78.9085 185.428 80.1897 182.14C80.8497 182.14 81.5097 182.14 82.1897 182.14C82.2877 182.762 82.3856 183.385 82.4866 184.026C82.9202 186.707 83.373 189.384 83.8347 192.06C84.0832 193.516 84.3259 194.973 84.5642 196.431C88.6372 221.136 96.3764 244.732 111.19 265.14C111.89 266.139 111.89 266.139 112.604 267.159C123.381 282.128 136.028 294.627 151.19 305.14C151.857 305.639 152.525 306.137 153.213 306.651C174.27 321.841 202.607 330.528 228.326 331.964C230.19 332.14 230.19 332.14 232.19 333.14C231.86 334.13 231.53 335.12 231.19 336.14C202.394 339.417 173.594 336.488 146.471 326.312C143.456 325.028 143.456 325.028 141.19 325.14C154.812 334.54 169.44 341.97 185.19 347.14C185.859 347.39 186.528 347.64 187.217 347.897C199.628 352.424 213.011 354.895 226.19 355.14C227.172 355.16 228.154 355.181 229.166 355.202C267.856 355.888 307.548 348.123 338.893 323.866C341.237 322.104 343.674 320.642 346.19 319.14C346.747 318.583 347.303 318.026 347.877 317.452C348.31 317.019 348.743 316.586 349.19 316.14C349.85 316.14 350.51 316.14 351.19 316.14C351.52 315.15 351.85 314.16 352.19 313.14C353.791 311.562 353.791 311.562 355.815 309.89C362.877 304.256 362.877 304.256 368.19 297.14C368.85 297.14 369.51 297.14 370.19 297.14C370.435 296.592 370.68 296.044 370.932 295.479C372.46 292.636 374.331 290.249 376.315 287.702C381.083 281.457 385.231 274.93 389.19 268.14C389.798 267.112 390.407 266.085 391.033 265.026C395.266 257.573 398.229 249.99 400.928 241.89C401.631 239.801 402.368 237.721 403.233 235.694C404.628 231.969 405.388 228.155 406.19 224.265C406.364 223.424 406.539 222.583 406.718 221.717C409.104 209.943 410.421 198.128 411.19 186.14C412.18 185.81 413.17 185.48 414.19 185.14C417.417 211.669 415.286 238.591 407.752 264.193C406.998 266.805 406.351 269.441 405.69 272.077C404.044 278 401.708 283.539 399.19 289.14C398.878 289.842 398.565 290.543 398.244 291.267C390.523 308.522 380.971 323.65 369.393 338.567C368.385 339.885 367.42 341.235 366.467 342.593C366.046 343.103 365.624 343.614 365.19 344.14C364.53 344.14 363.87 344.14 363.19 344.14C362.914 344.731 362.638 345.323 362.354 345.933C358.777 352.715 351.509 360.7 344.19 363.14C343.86 364.13 343.53 365.12 343.19 366.14C341.507 367.654 341.507 367.654 339.323 369.249C338.125 370.129 338.125 370.129 336.904 371.027C335.622 371.949 335.622 371.949 334.315 372.89C333.016 373.834 333.016 373.834 331.69 374.798C322.855 381.179 313.838 387.051 304.19 392.14C302.888 392.83 302.888 392.83 301.561 393.534C287.295 400.89 272.76 406.308 257.19 410.14C256.235 410.386 255.279 410.633 254.295 410.887C245.804 412.988 237.393 414.044 228.69 414.827C227.379 414.957 226.068 415.086 224.717 415.22C169.822 420.371 115.754 402.343 73.3755 367.477C72.7985 366.994 72.2216 366.512 71.6272 366.015C71.0728 365.553 70.5184 365.092 69.9473 364.617C68.6524 363.505 67.4144 362.328 66.1897 361.14C66.1897 360.48 66.1897 359.82 66.1897 359.14C65.598 358.874 65.0063 358.609 64.3967 358.335C50.4044 350.757 38.1858 330.412 30.1897 317.14C29.7024 316.379 29.2152 315.619 28.7131 314.835C16.0461 294.717 7.61126 270.981 2.87719 247.765C2.63827 246.608 2.63827 246.608 2.39452 245.428C0.0237918 233.058 -0.0159781 220.501 0.00218758 207.952C0.00279183 207.179 0.00339609 206.406 0.00401864 205.609C0.0725246 173.307 6.76159 141.767 22.1897 113.14C22.5561 112.451 22.9225 111.762 23.3 111.052C27.9488 102.338 32.6722 93.9592 38.6936 86.1084C40.2309 84.2115 40.2309 84.2115 41.1897 82.1396C41.8497 82.1396 42.5097 82.1396 43.1897 82.1396C43.6847 80.1596 43.6847 80.1596 44.1897 78.1396C44.8497 78.1396 45.5097 78.1396 46.1897 78.1396C46.4514 77.5596 46.713 76.9795 46.9827 76.3818C48.2602 74.0087 49.6955 72.2596 51.5022 70.2646C53.6202 67.907 55.6515 65.5595 57.6272 63.0771C60.2543 60.0656 63.0223 57.5352 66.0608 54.9521C68.9368 52.5036 71.7271 49.9613 74.5256 47.4248C76.1897 46.1396 76.1897 46.1396 78.1897 46.1396C78.1897 45.4796 78.1897 44.8196 78.1897 44.1396C79.5097 43.8096 80.8297 43.4796 82.1897 43.1396C82.1897 42.4796 82.1897 41.8196 82.1897 41.1396C83.97 39.7955 85.817 38.5393 87.6897 37.3271C88.7918 36.6117 89.894 35.8963 91.0295 35.1592C92.0724 34.4927 93.1152 33.8263 94.1897 33.1396C95.2744 32.4339 95.2744 32.4339 96.3811 31.7139C130.883 9.60102 169.055 0.185155 209.69 0.0146484Z" fill="currentColor"/>
<path d="M229.19 109.14C230.18 109.47 231.17 109.8 232.19 110.14C238.309 148.696 238.309 148.696 238.19 166.14C252.608 167.814 267.011 169.424 281.496 170.405C286.366 170.765 290.61 171.291 295.19 173.14C294.86 174.13 294.53 175.12 294.19 176.14C284.983 177.83 275.778 178.65 266.455 179.385C257.013 180.133 247.603 181.096 238.19 182.14C238.141 183.063 238.092 183.986 238.041 184.937C237.017 202.815 235.012 220.456 232.19 238.14C231.2 238.14 230.21 238.14 229.19 238.14C228.311 235.503 227.959 233.515 227.725 230.78C227.648 229.919 227.571 229.059 227.492 228.172C227.413 227.254 227.334 226.336 227.252 225.39C226.679 219.009 226.036 212.669 225.127 206.327C224.042 198.617 223.578 190.91 223.19 183.14C212.4 180.855 201.459 179.958 190.5 178.89C187.997 178.644 185.496 178.392 182.994 178.14C182.244 178.069 181.494 177.998 180.721 177.925C175.437 177.389 170.35 176.391 165.19 175.14C165.52 174.15 165.85 173.16 166.19 172.14C179.196 170.374 192.25 169.104 205.311 167.823C207.604 167.596 209.897 167.368 212.19 167.14C213.127 167.048 214.064 166.957 215.03 166.863C219.243 166.514 219.243 166.514 223.19 165.14C223.626 163.158 223.626 163.158 223.752 160.757C223.826 159.844 223.899 158.932 223.975 157.992C224.081 156.518 224.081 156.518 224.19 155.015C224.352 152.987 224.518 150.96 224.686 148.933C224.768 147.938 224.85 146.943 224.935 145.918C225.261 142.365 225.737 138.858 226.252 135.327C227.144 129.088 227.578 122.887 227.848 116.595C228.091 111.338 228.091 111.338 229.19 109.14Z" fill="currentColor"/>
<path d="M351.19 77.1396C354.52 78.4958 356.107 79.9846 358.143 82.9287C358.942 84.0815 358.942 84.0815 359.758 85.2576C360.313 86.0849 360.868 86.9122 361.44 87.7646C362.016 88.6184 362.592 89.4722 363.186 90.3518C384.253 122.131 392.18 160.11 385.877 197.886C382.498 213.88 377.511 229.024 369.19 243.14C368.575 244.242 367.96 245.344 367.326 246.479C363.716 252.886 363.716 252.886 362.19 255.14C361.53 255.14 360.87 255.14 360.19 255.14C359.86 256.46 359.53 257.78 359.19 259.14C358.53 259.14 357.87 259.14 357.19 259.14C356.929 259.717 356.669 260.295 356.401 260.89C353.542 266.202 348.68 271.148 344.19 275.14C343.53 275.14 342.87 275.14 342.19 275.14C343.63 271.037 345.635 267.836 348.19 264.327C348.891 263.351 349.592 262.376 350.315 261.37C350.933 260.634 351.552 259.898 352.19 259.14C352.85 259.14 353.51 259.14 354.19 259.14C354.429 258.476 354.669 257.812 354.916 257.128C356.525 253.354 358.52 249.879 360.565 246.327C365.472 237.78 369.578 229.709 372.315 220.202C372.566 219.36 372.817 218.517 373.076 217.649C383.702 181.517 379.171 142.904 362.069 109.55C358.446 102.974 354.31 96.7841 349.647 90.9014C349.227 90.3659 348.807 89.8305 348.375 89.2788C347.192 87.7838 345.986 86.3069 344.78 84.8311C343.19 82.1396 343.19 82.1396 343.319 79.3545C344.96 75.1823 347.405 76.1484 351.19 77.1396Z" fill="currentColor"/>
<path d="M313.19 45.1397C314.391 45.8979 315.593 46.6557 316.795 47.4131C326.822 53.7719 326.822 53.7719 328.19 55.1397C328.315 57.6397 328.315 57.6397 328.19 60.1397C327.19 61.1397 327.19 61.1397 324.26 61.5459C318.81 61.4572 314.621 58.3491 310.065 55.6397C299.451 49.6173 288.838 44.7926 277.19 41.1397C276.442 40.9025 275.695 40.6653 274.925 40.4209C251.187 33.3279 221.59 34.8162 198.19 42.1397C197.059 42.4503 195.929 42.761 194.764 43.0811C184.459 46.1246 174.389 51.3146 165.377 57.1397C162.19 59.1397 162.19 59.1397 159.19 59.1397C159.19 59.7997 159.19 60.4597 159.19 61.1397C157.596 62.4356 155.936 63.6512 154.252 64.8272C149.699 68.0448 145.298 71.3807 140.967 74.8897C139.19 76.1397 139.19 76.1397 137.19 76.1397C141.213 63.337 161.06 51.5608 172.221 45.4912C175.187 43.9851 178.176 42.5482 181.19 41.1397C182.106 40.6975 183.023 40.2554 183.967 39.7998C190.557 36.689 197.164 34.0883 204.19 32.1397C204.845 31.9548 205.5 31.77 206.175 31.5796C239.945 22.4966 283.415 25.9071 313.19 45.1397Z" fill="currentColor"/>
<path d="M335.19 32.1396C336.18 32.4696 337.17 32.7996 338.19 33.1396C339.527 43.1334 340.592 53.0701 341.19 63.1396C349.932 64.4007 358.534 65.3928 367.362 65.7959C370.19 66.1396 370.19 66.1396 373.19 68.1396C372.86 69.1296 372.53 70.1196 372.19 71.1396C371.57 71.195 370.951 71.2503 370.313 71.3074C367.459 71.563 364.606 71.8201 361.752 72.0771C360.291 72.2077 360.291 72.2077 358.801 72.3408C352.921 72.8718 347.055 73.4664 341.19 74.1396C341.14 74.83 341.089 75.5204 341.038 76.2317C340.804 79.3891 340.56 82.5456 340.315 85.7021C340.236 86.7882 340.157 87.8742 340.076 88.9932C339.631 94.6338 339.021 99.7772 337.19 105.14C336.2 104.81 335.21 104.48 334.19 104.14C332.577 94.1219 331.715 84.2641 331.19 74.1396C330.291 74.054 329.393 73.9684 328.468 73.8801C325.139 73.5609 321.81 73.2381 318.482 72.9128C317.041 72.7727 315.6 72.6341 314.158 72.4968C312.087 72.2995 310.017 72.097 307.948 71.8936C306.078 71.7129 306.078 71.7129 304.171 71.5286C301.19 71.1396 301.19 71.1396 299.19 70.1396C299.52 69.1496 299.85 68.1596 300.19 67.1396C303.708 65.9668 307.022 65.8686 310.69 65.7021C317.314 65.3539 323.697 64.5564 330.19 63.1396C331.124 60.3358 331.433 58.1689 331.655 55.2451C331.772 53.8114 331.772 53.8114 331.891 52.3486C332.047 50.3463 332.201 48.3437 332.352 46.3408C332.766 41.3215 333.275 36.8571 335.19 32.1396Z" fill="currentColor"/>
<path d="M80.1897 182.14C80.8497 182.14 81.5097 182.14 82.1897 182.14C82.2877 182.762 82.3856 183.385 82.4866 184.026C82.9203 186.707 83.373 189.384 83.8347 192.06C84.0832 193.516 84.3259 194.973 84.5642 196.431C86.8916 210.547 89.7745 225.384 96.2629 238.271C97.8262 241.423 97.8421 244.664 98.1897 248.14C95.1897 249.14 95.1897 249.14 92.1897 248.14C90.8483 248.79 89.5144 249.456 88.1897 250.14C87.5297 249.81 86.8697 249.48 86.1897 249.14C86.1897 252.11 86.1897 255.08 86.1897 258.14C83.4553 252.671 82.3868 247.102 81.1897 241.14C81.0486 240.47 80.9074 239.8 80.762 239.11C78.3575 227.349 77.896 215.727 77.8772 203.765C77.8737 203.035 77.8702 202.306 77.8666 201.554C77.861 199.45 77.8716 197.346 77.8889 195.241C77.8975 194.017 77.9062 192.794 77.915 191.533C78.1928 188.102 78.9604 185.342 80.1897 182.14Z" fill="currentColor"/>
<path d="M379.19 164.14C379.85 164.14 380.51 164.14 381.19 164.14C381.685 176.02 381.685 176.02 382.19 188.14C383.51 187.48 384.83 186.82 386.19 186.14C388.11 205.132 378.633 227.121 369.19 243.14C368.575 244.242 367.96 245.344 367.326 246.479C363.716 252.886 363.716 252.886 362.19 255.14C361.53 255.14 360.87 255.14 360.19 255.14C359.86 256.46 359.53 257.78 359.19 259.14C358.53 259.14 357.87 259.14 357.19 259.14C356.929 259.717 356.669 260.295 356.401 260.89C353.542 266.202 348.68 271.148 344.19 275.14C343.53 275.14 342.87 275.14 342.19 275.14C343.63 271.037 345.635 267.836 348.19 264.327C348.891 263.351 349.592 262.376 350.315 261.37C350.933 260.634 351.552 259.898 352.19 259.14C352.85 259.14 353.51 259.14 354.19 259.14C354.429 258.476 354.669 257.812 354.916 257.128C356.525 253.354 358.52 249.879 360.565 246.327C365.472 237.78 369.578 229.709 372.315 220.202C372.566 219.36 372.817 218.517 373.076 217.649C377.074 204.054 378.29 191.164 378.752 177.015C378.817 175.151 378.817 175.151 378.883 173.249C378.988 170.213 379.09 167.176 379.19 164.14Z" fill="currentColor"/>
<path d="M351.19 77.1396C354.52 78.4958 356.107 79.9846 358.143 82.9287C358.676 83.6984 359.21 84.468 359.76 85.261C360.591 86.5003 360.591 86.5003 361.44 87.7646C362.297 89.0301 362.297 89.0301 363.171 90.321C366.802 95.7872 370.115 101.339 373.065 107.202C373.404 107.874 373.743 108.546 374.093 109.238C374.863 110.839 375.537 112.487 376.19 114.14C375.695 115.13 375.695 115.13 375.19 116.14C374.262 115.645 374.262 115.645 373.315 115.14C371.28 113.998 371.28 113.998 369.19 114.14C369.334 114.731 369.478 115.323 369.627 115.933C370.598 120.065 371.466 123.863 371.19 128.14C369.951 125.686 368.749 123.22 367.561 120.741C362.452 110.174 356.855 100.029 349.584 90.7764C348.952 89.9676 348.952 89.9676 348.307 89.1426C347.137 87.6679 345.941 86.2136 344.744 84.7607C343.19 82.1396 343.19 82.1396 343.323 79.3623C344.954 75.1803 347.402 76.1475 351.19 77.1396Z" fill="currentColor"/>
<path d="M412.19 185.14C412.85 185.14 413.51 185.14 414.19 185.14C416.563 204.651 419.213 233.092 410.19 251.14C410.19 247.18 410.19 243.22 410.19 239.14C409.86 240.13 409.53 241.12 409.19 242.14C403.967 245.14 403.967 245.14 401.19 245.14C401.944 238.726 401.944 238.726 403.104 235.956C404.576 232.139 405.365 228.265 406.19 224.265C406.364 223.424 406.539 222.583 406.718 221.717C408.943 210.734 410.277 199.744 410.944 188.554C411.19 186.14 411.19 186.14 412.19 185.14Z" fill="currentColor"/>
<path d="M291.19 38.1397C303.952 36.6894 316.104 46.3399 326.19 53.1397C328.19 55.1397 328.19 55.1397 328.377 57.7022C328.19 60.1397 328.19 60.1397 327.19 61.1397C320.29 62.0713 315.797 59.2227 309.94 55.8272C309.043 55.3276 308.145 54.8281 307.221 54.3135C299.598 50.0054 299.598 50.0054 297.19 47.1397C297.19 46.4797 297.19 45.8197 297.19 45.1397C295.54 44.8097 293.89 44.4797 292.19 44.1397C291.86 42.1597 291.53 40.1797 291.19 38.1397Z" fill="currentColor"/>
<path d="M192.19 38.1396C190.399 39.1162 188.609 40.0928 186.819 41.0693C185.024 42.0537 185.024 42.0537 184.19 44.1396C185.077 43.8096 185.963 43.4796 186.877 43.1396C189.899 42.2274 192.073 41.9563 195.19 42.1396C192.648 44.6809 190.491 45.1133 187.065 46.2021C180.413 48.4905 174.56 51.5142 168.521 55.1047C165.419 56.9409 162.713 58.387 159.19 59.1396C159.19 59.7996 159.19 60.4596 159.19 61.1396C157.596 62.4356 155.936 63.6512 154.252 64.8271C149.699 68.0448 145.298 71.3807 140.967 74.8896C139.19 76.1396 139.19 76.1396 137.19 76.1396C141.22 63.3155 161.11 51.5253 172.291 45.4561C175.235 43.962 178.198 42.5346 181.19 41.1396C182.075 40.713 182.961 40.2863 183.873 39.8467C189.927 37.0085 189.927 37.0085 192.19 38.1396Z" fill="currentColor"/>
<path d="M373.19 218.14C374.607 222.39 373.383 224.858 372.19 229.14C373.84 227.82 375.49 226.5 377.19 225.14C375.285 231.69 372.645 237.279 369.19 243.14C368.294 244.741 368.294 244.741 367.381 246.374C366.761 247.472 366.141 248.571 365.502 249.702C364.921 250.735 364.339 251.767 363.74 252.831C363.229 253.593 362.717 254.355 362.19 255.14C361.53 255.14 360.87 255.14 360.19 255.14C359.86 256.46 359.53 257.78 359.19 259.14C358.53 259.14 357.87 259.14 357.19 259.14C356.929 259.717 356.669 260.295 356.401 260.89C353.542 266.202 348.68 271.148 344.19 275.14C343.53 275.14 342.87 275.14 342.19 275.14C343.63 271.037 345.635 267.836 348.19 264.327C348.891 263.351 349.592 262.376 350.315 261.37C350.933 260.634 351.552 259.898 352.19 259.14C352.85 259.14 353.51 259.14 354.19 259.14C354.429 258.476 354.669 257.812 354.916 257.128C356.525 253.354 358.52 249.879 360.565 246.327C364.793 238.963 368.854 231.766 371.44 223.64C371.942 222.077 371.942 222.077 372.455 220.483C372.698 219.71 372.94 218.937 373.19 218.14Z" fill="currentColor"/>
<path d="M381.19 142.14C381.52 142.8 381.85 143.46 382.19 144.14C381.53 143.81 380.87 143.48 380.19 143.14C380.52 142.81 380.85 142.48 381.19 142.14ZM378.19 144.14C380.19 145.14 380.19 145.14 381.19 147.14C382.18 147.47 383.17 147.8 384.19 148.14C384.313 149.253 384.437 150.367 384.565 151.515C384.836 155.171 384.836 155.171 387.19 157.14C387.417 160.029 387.417 160.029 387.385 163.679C387.379 164.981 387.372 166.283 387.365 167.624C387.349 169.004 387.332 170.384 387.315 171.765C387.305 173.153 387.296 174.541 387.287 175.929C387.264 179.333 387.231 182.736 387.19 186.14C385.21 187.13 383.23 188.12 381.19 189.14C381.19 180.89 381.19 172.64 381.19 164.14C380.53 164.14 379.87 164.14 379.19 164.14C378.86 157.54 378.53 150.94 378.19 144.14Z" fill="currentColor"/>
<path d="M80.1897 182.14C80.8497 182.14 81.5097 182.14 82.1897 182.14C82.2877 182.762 82.3856 183.385 82.4866 184.026C85.7805 205.179 85.7805 205.179 91.553 225.741C92.1897 228.14 92.1897 228.14 91.1897 231.14C88.1732 224.461 85.6144 218.5 85.1897 211.14C83.8697 211.47 82.5497 211.8 81.1897 212.14C81.1897 219.73 81.1897 227.32 81.1897 235.14C80.8597 235.14 80.5297 235.14 80.1897 235.14C78.5045 225.451 77.8712 216.123 77.929 206.314C77.9398 204.114 77.9289 201.914 77.9163 199.714C77.9176 198.293 77.9201 196.873 77.9241 195.452C77.9263 194.19 77.9286 192.928 77.9309 191.628C78.1893 188.145 78.9347 185.385 80.1897 182.14Z" fill="currentColor"/>
<path d="M228.19 30.1396C232.385 30.1146 236.58 30.0966 240.775 30.0847C242.197 30.0797 243.618 30.073 245.04 30.0642C270.571 29.9111 270.571 29.9111 277.19 34.1396C276.01 36.1436 276.01 36.1436 274.19 38.1396C271.869 38.417 271.869 38.417 269.065 38.0771C267.993 37.9521 266.922 37.8271 265.819 37.6982C261.145 36.9789 256.505 36.1135 251.859 35.2339C244.012 33.8102 236.148 33.4285 228.19 33.1396C228.19 32.1496 228.19 31.1596 228.19 30.1396Z" fill="currentColor"/>
<path d="M223.19 165.14C223.685 166.625 223.685 166.625 224.19 168.14C216.102 169.809 208.111 170.658 199.877 171.202C197.61 171.357 195.343 171.515 193.076 171.675C191.595 171.774 191.595 171.774 190.083 171.874C187.083 172.149 184.158 172.635 181.19 173.14C179.399 173.203 177.606 173.226 175.815 173.202C174.504 173.189 174.504 173.189 173.166 173.175C172.188 173.157 172.188 173.157 171.19 173.14C171.19 173.8 171.19 174.46 171.19 175.14C172.955 175.213 172.955 175.213 174.756 175.288C184.291 175.71 193.804 176.281 203.315 177.077C204.249 177.152 205.183 177.226 206.145 177.303C212.267 177.837 218.191 178.81 224.19 180.14C223.86 181.13 223.53 182.12 223.19 183.14C222.618 183.018 222.045 182.897 221.456 182.772C211.225 180.752 200.867 179.9 190.5 178.89C187.997 178.644 185.496 178.392 182.994 178.14C182.244 178.069 181.494 177.998 180.721 177.925C175.437 177.389 170.35 176.391 165.19 175.14C165.52 174.15 165.85 173.16 166.19 172.14C179.196 170.374 192.25 169.104 205.311 167.823C207.604 167.596 209.897 167.368 212.19 167.14C213.127 167.048 214.064 166.957 215.03 166.863C219.243 166.514 219.243 166.514 223.19 165.14Z" fill="currentColor"/>
<path d="M276.19 33.1396C283.733 32.645 289.249 34.2335 296.19 37.1396C294.21 38.1296 294.21 38.1296 292.19 39.1396C292.52 40.7896 292.85 42.4396 293.19 44.1396C294.51 44.4696 295.83 44.7996 297.19 45.1396C297.19 45.7996 297.19 46.4596 297.19 47.1396C298.18 47.4696 299.17 47.7996 300.19 48.1396C298.19 49.1396 298.19 49.1396 296.257 48.5664C295.477 48.2451 294.697 47.9238 293.893 47.5928C293.022 47.2434 292.152 46.8941 291.255 46.5342C290.326 46.1565 289.397 45.7788 288.44 45.3896C280.082 42.0816 272.089 39.5755 263.19 38.1396C263.19 37.8096 263.19 37.4796 263.19 37.1396C264.448 37.119 265.706 37.0984 267.002 37.0771C267.71 37.0655 268.418 37.0539 269.147 37.042C271.19 37.1396 271.19 37.1396 274.19 38.1396C274.85 36.4896 275.51 34.8396 276.19 33.1396Z" fill="currentColor"/>
<path d="M328.19 73.1396C329.84 73.1396 331.49 73.1396 333.19 73.1396C333.85 77.4296 334.51 81.7196 335.19 86.1396C335.85 86.1396 336.51 86.1396 337.19 86.1396C337.322 85.285 337.455 84.4304 337.592 83.5498C337.769 82.4451 337.945 81.3404 338.127 80.2021C338.301 79.1 338.475 77.9979 338.655 76.8623C339.19 74.1396 339.19 74.1396 340.19 73.1396C341.856 73.099 343.524 73.0969 345.19 73.1396C343.87 73.4696 342.55 73.7996 341.19 74.1396C341.14 74.83 341.089 75.5204 341.038 76.2317C340.804 79.3891 340.56 82.5456 340.315 85.7021C340.197 87.3312 340.197 87.3312 340.076 88.9932C339.631 94.6338 339.021 99.7772 337.19 105.14C336.2 104.81 335.21 104.48 334.19 104.14C332.58 94.1347 331.689 84.2509 331.19 74.1396C330.2 73.8096 329.21 73.4796 328.19 73.1396Z" fill="currentColor"/>
<path d="M379.19 164.14C379.85 164.14 380.51 164.14 381.19 164.14C381.52 172.06 381.85 179.98 382.19 188.14C383.51 187.48 384.83 186.82 386.19 186.14C387.251 196.631 384.078 206.184 381.19 216.14C380.86 216.14 380.53 216.14 380.19 216.14C379.938 209.729 379.938 209.729 381.19 206.796C382.376 203.645 382.388 201.182 382.315 197.827C382.288 196.224 382.288 196.224 382.26 194.589C382.237 193.781 382.214 192.972 382.19 192.14C381.53 192.14 380.87 192.14 380.19 192.14C380.141 192.899 380.092 193.658 380.041 194.44C379.966 195.434 379.892 196.428 379.815 197.452C379.745 198.438 379.675 199.424 379.604 200.44C379.19 203.14 379.19 203.14 377.19 206.14C377.85 192.28 378.51 178.42 379.19 164.14Z" fill="currentColor"/>
<path d="M368.19 100.14C371.048 102.62 372.389 105.276 373.94 108.702C374.388 109.673 374.837 110.643 375.299 111.644C375.74 112.879 375.74 112.879 376.19 114.14C375.86 114.8 375.53 115.46 375.19 116.14C374.571 115.81 373.952 115.48 373.315 115.14C371.28 113.998 371.28 113.998 369.19 114.14C369.334 114.731 369.478 115.323 369.627 115.933C370.598 120.065 371.466 123.863 371.19 128.14C369.902 125.572 368.625 122.999 367.35 120.425C366.651 119.017 365.951 117.61 365.252 116.202C364.731 115.147 364.731 115.147 364.199 114.071C362.7 111.058 361.188 108.138 359.436 105.261C358.19 103.14 358.19 103.14 358.19 101.14C359.18 101.47 360.17 101.8 361.19 102.14C362.377 104.702 362.377 104.702 363.19 107.14C363.85 106.48 364.51 105.82 365.19 105.14C365.19 103.82 365.19 102.5 365.19 101.14C366.18 100.81 367.17 100.48 368.19 100.14Z" fill="currentColor"/>
<path d="M412.19 185.14C412.85 185.14 413.51 185.14 414.19 185.14C415.21 193.191 415.34 201.157 415.315 209.265C415.319 210.488 415.322 211.711 415.326 212.972C415.32 219.122 415.145 225.061 414.19 231.14C413.86 231.14 413.53 231.14 413.19 231.14C412.86 223.55 412.53 215.96 412.19 208.14C411.53 212.1 410.87 216.06 410.19 220.14C409.53 220.14 408.87 220.14 408.19 220.14C408.76 212.048 409.45 203.968 410.19 195.89C410.273 194.948 410.356 194.007 410.441 193.037C410.564 191.719 410.564 191.719 410.69 190.374C410.762 189.582 410.834 188.79 410.908 187.975C411.19 186.14 411.19 186.14 412.19 185.14Z" fill="currentColor"/>
<path d="M272.19 170.14C274.899 170.254 277.606 170.381 280.315 170.515C281.075 170.546 281.836 170.577 282.619 170.608C287.136 170.842 290.931 171.466 295.19 173.14C294.86 174.13 294.53 175.12 294.19 176.14C284.983 177.83 275.778 178.65 266.455 179.385C257.013 180.133 247.603 181.096 238.19 182.14C238.19 181.48 238.19 180.82 238.19 180.14C243.869 178.562 249.313 177.947 255.19 177.702C266.929 177.207 278.545 175.644 290.19 174.14C288.366 173.958 288.366 173.958 286.506 173.772C284.921 173.604 283.337 173.434 281.752 173.265C280.549 173.147 280.549 173.147 279.321 173.026C277.268 172.801 275.227 172.477 273.19 172.14C272.695 171.15 272.695 171.15 272.19 170.14Z" fill="currentColor"/>
<path d="M238.19 166.14C243.014 166.685 247.838 167.237 252.661 167.794C254.303 167.982 255.945 168.17 257.588 168.355C259.944 168.622 262.299 168.894 264.655 169.167C265.393 169.249 266.132 169.332 266.893 169.416C272.076 170.026 272.076 170.026 273.19 171.14C274.528 171.365 275.875 171.533 277.225 171.675C278.034 171.762 278.843 171.849 279.676 171.938C280.526 172.025 281.376 172.112 282.252 172.202C283.533 172.338 283.533 172.338 284.84 172.478C286.956 172.702 289.073 172.921 291.19 173.14C290.86 173.8 290.53 174.46 290.19 175.14C286.414 176.221 282.785 176.245 278.877 176.202C277.274 176.189 277.274 176.189 275.639 176.175C274.831 176.163 274.022 176.152 273.19 176.14C272.695 175.15 272.695 175.15 272.19 174.14C262.224 169.641 249.927 169.931 239.19 169.14C238.86 168.15 238.53 167.16 238.19 166.14Z" fill="currentColor"/>
<path d="M410.19 236.14C410.52 236.14 410.85 236.14 411.19 236.14C410.86 242.41 410.53 248.68 410.19 255.14C407.104 256.168 405.416 256.14 402.19 256.14C402.85 253.17 403.51 250.2 404.19 247.14C402.041 250.692 402.041 250.692 402.19 253.14C400.87 253.14 399.55 253.14 398.19 253.14C397.86 253.8 397.53 254.46 397.19 255.14C398.174 247.924 398.174 247.924 400.19 245.14C403.42 243.215 405.408 242.14 409.19 242.14C409.52 240.16 409.85 238.18 410.19 236.14Z" fill="currentColor"/>
<path d="M233.264 27.9014C234.022 27.8918 234.781 27.8823 235.562 27.8725C238 27.8481 240.439 27.8355 242.877 27.8272C243.704 27.8232 244.53 27.8193 245.381 27.8152C258.049 27.7869 269.941 28.6535 282.19 32.1397C282.19 32.4697 282.19 32.7997 282.19 33.1397C280.932 33.1603 279.673 33.1809 278.377 33.2022C277.67 33.2138 276.962 33.2254 276.233 33.2373C274.19 33.1397 274.19 33.1397 271.19 32.1397C259.751 30.4428 247.969 31.0282 236.44 31.0772C234.375 31.0822 232.309 31.0867 230.244 31.0908C225.226 31.1017 220.208 31.119 215.19 31.1397C220.573 27.551 226.955 27.9685 233.264 27.9014Z" fill="currentColor"/>
<path d="M412.19 201.14C412.52 201.14 412.85 201.14 413.19 201.14C413.239 205.339 413.275 209.538 413.3 213.737C413.31 215.165 413.323 216.593 413.341 218.021C413.365 220.076 413.376 222.131 413.385 224.187C413.395 225.422 413.406 226.658 413.417 227.932C413.203 230.956 412.786 232.61 411.19 235.14C410.53 235.14 409.87 235.14 409.19 235.14C408.2 235.8 407.21 236.46 406.19 237.14C406.807 231.466 407.469 225.801 408.19 220.14C408.85 220.14 409.51 220.14 410.19 220.14C410.128 218.222 410.128 218.222 410.065 216.265C410.048 211.051 411.007 206.2 412.19 201.14Z" fill="currentColor"/>
<path d="M353.252 77.7647C356.301 79.9285 357.48 82.8426 359.19 86.1397C358.53 86.1397 357.87 86.1397 357.19 86.1397C355.565 84.1397 355.565 84.1397 354.19 82.1397C353.2 83.6247 353.2 83.6247 352.19 85.1397C352.547 87.0709 352.547 87.0709 353.19 89.1397C353.228 90.8059 353.236 92.4736 353.19 94.1397C349.388 90.5548 345.6 86.8326 343.19 82.1397C343.252 79.2647 343.252 79.2647 344.19 77.1397C347.368 75.5505 349.976 76.7717 353.252 77.7647Z" fill="currentColor"/>
<path d="M335.19 32.1396C336.18 32.4696 337.17 32.7996 338.19 33.1396C339.527 43.1334 340.592 53.0701 341.19 63.1396C343.17 63.4696 345.15 63.7996 347.19 64.1396C347.19 64.4696 347.19 64.7996 347.19 65.1396C344.55 65.1396 341.91 65.1396 339.19 65.1396C338.2 58.5396 337.21 51.9396 336.19 45.1396C335.2 46.1296 334.21 47.1196 333.19 48.1396C332.986 42.4012 332.918 37.5343 335.19 32.1396Z" fill="currentColor"/>
<path d="M194.037 171.983C194.74 171.965 195.443 171.946 196.167 171.927C198.533 172.176 200.135 172.971 202.19 174.14C202.19 175.13 202.19 176.12 202.19 177.14C191.785 177.569 181.512 176.28 171.19 175.14C171.19 174.48 171.19 173.82 171.19 173.14C174.002 172.97 176.815 172.804 179.627 172.64C180.41 172.592 181.193 172.544 182 172.495C186.01 172.264 190.022 172.076 194.037 171.983Z" fill="currentColor"/>
<path d="M310.877 66.0771C311.579 66.0817 312.281 66.0862 313.004 66.0908C314.733 66.1026 316.461 66.1205 318.19 66.1396C317.2 67.1296 316.21 68.1196 315.19 69.1396C319.48 69.7996 323.77 70.4596 328.19 71.1396C328.19 71.7996 328.19 72.4596 328.19 73.1396C302.114 71.602 302.114 71.602 299.19 70.1396C299.52 69.1496 299.85 68.1596 300.19 67.1396C303.808 65.9334 307.115 66.0315 310.877 66.0771Z" fill="currentColor"/>
<path d="M157.19 55.1396C157.52 55.7996 157.85 56.4596 158.19 57.1396C157.86 58.1296 157.53 59.1196 157.19 60.1396C157.85 60.4696 158.51 60.7996 159.19 61.1396C158.155 61.8841 158.155 61.8841 157.1 62.6436C151.618 66.6065 146.224 70.6312 140.967 74.8896C139.19 76.1396 139.19 76.1396 137.19 76.1396C139.414 69.062 145.499 64.9221 151.002 60.3271C151.6 59.8251 152.197 59.323 152.813 58.8057C154.27 57.5816 155.73 56.3603 157.19 55.1396Z" fill="currentColor"/>
<path d="M335.19 42.1396C337.147 45.0755 337.492 46.0379 337.823 49.3701C337.906 50.1726 337.99 50.975 338.076 51.8018C338.155 52.6351 338.234 53.4685 338.315 54.3271C338.401 55.1721 338.487 56.0171 338.576 56.8877C338.788 58.9709 338.99 61.0552 339.19 63.1396C338.571 63.2634 337.952 63.3871 337.315 63.5146C334.999 64.0116 334.999 64.0116 333.19 66.1396C333.135 63.2644 333.096 60.3902 333.065 57.5146C333.048 56.7064 333.031 55.8982 333.014 55.0654C332.976 50.3387 333.362 46.5858 335.19 42.1396Z" fill="currentColor"/>
<path d="M291.19 38.1396C292.84 38.1396 294.49 38.1396 296.19 38.1396C296.85 39.7896 297.51 41.4396 298.19 43.1396C301.16 43.4696 304.13 43.7996 307.19 44.1396C307.52 45.7896 307.85 47.4396 308.19 49.1396C308.85 49.1396 309.51 49.1396 310.19 49.1396C309.86 50.1296 309.53 51.1196 309.19 52.1396C308.86 51.4796 308.53 50.8196 308.19 50.1396C306.197 49.8825 304.201 49.6313 302.198 49.4834C300.19 49.1396 300.19 49.1396 297.19 47.1396C297.19 46.4796 297.19 45.8196 297.19 45.1396C295.54 44.8096 293.89 44.4796 292.19 44.1396C291.86 42.1596 291.53 40.1796 291.19 38.1396Z" fill="currentColor"/>
<path d="M196.19 0.139644C200.336 0.110324 204.481 0.0927382 208.627 0.0771438C209.792 0.0687649 210.957 0.060386 212.156 0.0517532C218.593 0.0336223 224.81 0.273145 231.19 1.13964C230.86 2.12964 230.53 3.11964 230.19 4.13964C223.817 4.88472 217.607 5.24314 211.19 5.13964C211.85 4.14964 212.51 3.15964 213.19 2.13964C207.58 1.80964 201.97 1.47964 196.19 1.13964C196.19 0.809644 196.19 0.479644 196.19 0.139644Z" fill="currentColor"/>
<path d="M80.1897 182.14C80.8497 182.14 81.5097 182.14 82.1897 182.14C82.5282 184.035 82.8603 185.931 83.1897 187.827C83.3753 188.883 83.5609 189.939 83.7522 191.026C84.1404 193.789 84.2723 196.357 84.1897 199.14C81.8718 195.276 81.9007 193.117 81.1897 188.14C80.5297 199.03 79.8697 209.92 79.1897 221.14C78.8597 221.14 78.5297 221.14 78.1897 221.14C78.14 216.55 78.1039 211.96 78.0798 207.37C78.0698 205.811 78.0562 204.251 78.0388 202.691C78.0144 200.442 78.0032 198.194 77.9944 195.944C77.9841 195.253 77.9737 194.563 77.9631 193.851C77.9621 189.567 78.6236 186.123 80.1897 182.14Z" fill="currentColor"/>
<path d="M223.19 332.14C229.94 332.015 229.94 332.015 232.19 333.14C231.86 334.13 231.53 335.12 231.19 336.14C215.928 337.877 200.465 337.556 185.19 336.14C185.19 335.81 185.19 335.48 185.19 335.14C199.38 335.14 213.57 335.14 228.19 335.14C228.19 334.48 228.19 333.82 228.19 333.14C226.54 333.14 224.89 333.14 223.19 333.14C223.19 332.81 223.19 332.48 223.19 332.14Z" fill="currentColor"/>
<path d="M342.19 67.1396C358.898 66.9551 358.898 66.9551 367.19 68.1396C366.86 68.7996 366.53 69.4596 366.19 70.1396C361.263 71.3598 356.353 71.2577 351.315 71.2021C350.531 71.1976 349.747 71.1931 348.94 71.1885C347.023 71.1768 345.106 71.1589 343.19 71.1396C342.86 69.8196 342.53 68.4996 342.19 67.1396Z" fill="currentColor"/>
<path d="M282.19 33.1396C287.026 34.1301 291.666 35.0966 296.19 37.1396C294.21 38.1296 294.21 38.1296 292.19 39.1396C292.52 40.7896 292.85 42.4396 293.19 44.1396C294.51 44.4696 295.83 44.7996 297.19 45.1396C297.19 45.7996 297.19 46.4596 297.19 47.1396C298.18 47.4696 299.17 47.7996 300.19 48.1396C298.19 49.1396 298.19 49.1396 294.494 47.9248C293.015 47.3583 291.538 46.7837 290.065 46.2021C289.311 45.9115 288.556 45.6208 287.78 45.3213C285.914 44.6009 284.051 43.8711 282.19 43.1396C282.19 42.8096 282.19 42.4796 282.19 42.1396C283.84 42.1396 285.49 42.1396 287.19 42.1396C287.19 41.1496 287.19 40.1596 287.19 39.1396C287.85 38.4796 288.51 37.8196 289.19 37.1396C286.88 36.1496 284.57 35.1596 282.19 34.1396C282.19 33.8096 282.19 33.4796 282.19 33.1396Z" fill="currentColor"/>
<path d="M381.19 130.14C381.52 130.14 381.85 130.14 382.19 130.14C386.782 147.996 386.782 147.996 386.19 156.14C385.53 155.81 384.87 155.48 384.19 155.14C384.19 152.83 384.19 150.52 384.19 148.14C382.87 147.81 381.55 147.48 380.19 147.14C380.19 146.15 380.19 145.16 380.19 144.14C380.85 144.14 381.51 144.14 382.19 144.14C381.86 142.82 381.53 141.5 381.19 140.14C380.2 140.47 379.21 140.8 378.19 141.14C378.065 138.765 378.065 138.765 378.19 136.14C378.85 135.48 379.51 134.82 380.19 134.14C380.832 132.071 380.832 132.071 381.19 130.14Z" fill="currentColor"/>
<path d="M348.19 65.1396C351.794 65.2494 355.398 65.3801 359.002 65.5146C360.538 65.5611 360.538 65.5611 362.106 65.6084C363.089 65.6471 364.072 65.6857 365.084 65.7256C365.99 65.757 366.896 65.7884 367.83 65.8208C370.19 66.1396 370.19 66.1396 373.19 68.1396C372.86 69.1296 372.53 70.1196 372.19 71.1396C364.829 71.9369 357.592 72.2685 350.19 72.1396C350.19 71.8096 350.19 71.4796 350.19 71.1396C355.47 70.4796 360.75 69.8196 366.19 69.1396C361.389 68.5627 361.389 68.5627 356.587 68.0034C353.094 67.5609 351.168 67.1249 348.19 65.1396Z" fill="currentColor"/>
<path d="M404.19 246.14C405.582 250.316 404.013 252.274 402.19 256.14C403.84 255.48 405.49 254.82 407.19 254.14C407.19 256.12 407.19 258.1 407.19 260.14C404.65 260.986 403.284 261.16 400.627 260.577C397.942 259.805 397.942 259.805 395.19 262.14C396.18 259.17 397.17 256.2 398.19 253.14C399.51 253.14 400.83 253.14 402.19 253.14C401.849 252.242 401.849 252.242 401.502 251.327C401.399 250.605 401.296 249.883 401.19 249.14C402.627 247.39 402.627 247.39 404.19 246.14Z" fill="currentColor"/>
<path d="M380.19 192.14C380.85 192.14 381.51 192.14 382.19 192.14C384.394 198.752 383.27 204.896 381.139 211.39C380.19 213.14 380.19 213.14 377.19 214.14C376.732 206.514 378.444 199.537 380.19 192.14Z" fill="currentColor"/>
<path d="M373.19 127.14C375.993 126.912 377.652 126.799 380.065 128.327C381.19 130.14 381.19 130.14 381.002 132.452C380.12 135.369 379.194 138.262 378.19 141.14C380.52 140.181 380.52 140.181 382.19 137.14C381.86 138.79 381.53 140.44 381.19 142.14C379.54 141.81 377.89 141.48 376.19 141.14C374.886 136.983 374.065 133.489 374.19 129.14C373.86 128.48 373.53 127.82 373.19 127.14Z" fill="currentColor"/>
<path d="M186.975 0.97168C187.713 0.968351 188.451 0.965023 189.212 0.961594C190.766 0.95655 192.32 0.954185 193.874 0.954346C196.248 0.952152 198.622 0.933951 200.996 0.915039C202.51 0.912106 204.024 0.910121 205.537 0.90918C206.245 0.901994 206.952 0.894809 207.681 0.887405C211.353 0.904412 214.069 1.11823 217.19 3.13965C213.012 4.73103 209.658 5.35243 205.19 5.13965C205.19 4.47965 205.19 3.81965 205.19 3.13965C194.96 3.13965 184.73 3.13965 174.19 3.13965C174.19 2.80965 174.19 2.47965 174.19 2.13965C178.457 1.1023 182.608 0.978569 186.975 0.97168Z" fill="currentColor"/>
<path d="M371.19 294.14C372.19 296.14 372.19 296.14 371.502 299.077C370.12 302.302 369.204 303.444 366.19 305.14C365.53 305.14 364.87 305.14 364.19 305.14C363.983 305.903 363.777 306.666 363.565 307.452C361.735 311.028 359.852 311.632 356.19 313.14C355.241 313.532 354.292 313.923 353.315 314.327C352.613 314.595 351.912 314.863 351.19 315.14C353.801 312.523 356.418 309.912 359.049 307.315C360.013 306.361 360.976 305.407 361.94 304.452C362.68 303.724 362.68 303.724 363.436 302.981C366.156 300.321 366.156 300.321 368.19 297.14C368.85 297.14 369.51 297.14 370.19 297.14C370.52 296.15 370.85 295.16 371.19 294.14Z" fill="currentColor"/>
<path d="M412.19 185.14C412.85 185.14 413.51 185.14 414.19 185.14C414.19 188.44 414.19 191.74 414.19 195.14C413.86 195.14 413.53 195.14 413.19 195.14C413.141 195.939 413.092 196.738 413.041 197.562C412.522 205.189 411.585 212.623 410.19 220.14C409.53 220.14 408.87 220.14 408.19 220.14C408.76 212.048 409.45 203.968 410.19 195.89C410.273 194.948 410.356 194.007 410.441 193.037C410.564 191.719 410.564 191.719 410.69 190.374C410.762 189.582 410.834 188.79 410.908 187.975C411.19 186.14 411.19 186.14 412.19 185.14Z" fill="currentColor"/>
<path d="M68.1897 116.14C69.5289 120.157 68.1973 122.801 66.8772 126.64C64.7509 133.082 63.1454 139.407 62.1897 146.14C61.8597 146.14 61.5297 146.14 61.1897 146.14C61.2245 144.983 61.2245 144.983 61.26 143.804C61.2781 142.801 61.2961 141.798 61.3147 140.765C61.3379 139.767 61.3611 138.769 61.385 137.741C61.4619 134.977 61.4619 134.977 59.1897 133.14C60.5097 130.5 61.8297 127.86 63.1897 125.14C63.8497 125.14 64.5097 125.14 65.1897 125.14C65.1278 124.212 65.0659 123.283 65.0022 122.327C65.1897 119.14 65.1897 119.14 66.6897 117.265C67.1847 116.893 67.6797 116.522 68.1897 116.14Z" fill="currentColor"/>
<path d="M130.19 318.14C131.768 318.635 131.768 318.635 133.377 319.14C136.578 319.979 138.931 320.337 142.19 320.14C142.437 320.779 142.685 321.418 142.94 322.077C144.005 324.327 144.005 324.327 146.315 324.89C146.933 324.972 147.552 325.055 148.19 325.14C146.19 326.14 146.19 326.14 143.19 326.14C141.023 326.973 141.023 326.973 140.19 329.14C139.53 329.14 138.87 329.14 138.19 329.14C138.19 328.48 138.19 327.82 138.19 327.14C136.54 326.81 134.89 326.48 133.19 326.14C133.85 325.81 134.51 325.48 135.19 325.14C135.19 324.15 135.19 323.16 135.19 322.14C134.55 321.851 133.911 321.562 133.252 321.265C131.19 320.14 131.19 320.14 130.19 318.14Z" fill="currentColor"/>
<path d="M358.19 93.1396C360.19 95.1396 360.19 95.1396 360.19 99.1396C360.85 99.1396 361.51 99.1396 362.19 99.1396C362.52 98.1496 362.85 97.1596 363.19 96.1396C363.85 96.1396 364.51 96.1396 365.19 96.1396C365.19 97.1296 365.19 98.1196 365.19 99.1396C366.18 99.4696 367.17 99.7996 368.19 100.14C367.86 100.8 367.53 101.46 367.19 102.14C366.53 101.81 365.87 101.48 365.19 101.14C365.52 102.79 365.85 104.44 366.19 106.14C365.2 106.8 364.21 107.46 363.19 108.14C362.757 107.212 362.323 106.283 361.877 105.327C360.436 102.606 359.345 101.197 357.19 99.1396C356.86 98.1496 356.53 97.1596 356.19 96.1396C356.85 95.1496 357.51 94.1596 358.19 93.1396Z" fill="currentColor"/>
<path d="M184.19 176.14C190.752 176.577 190.752 176.577 192.792 176.716C196.252 176.95 199.711 177.168 203.174 177.358C210.341 177.768 217.206 178.447 224.19 180.14C223.86 181.13 223.53 182.12 223.19 183.14C222.54 183.013 221.89 182.886 221.221 182.755C213.029 181.203 204.819 180.2 196.535 179.284C195.005 179.104 195.005 179.104 193.444 178.921C192.529 178.818 191.615 178.716 190.672 178.61C188.191 178.14 186.375 177.383 184.19 176.14Z" fill="currentColor"/>
<path d="M353.19 81.1396C355.19 82.5146 355.19 82.5146 357.19 84.1396C357.19 84.7996 357.19 85.4596 357.19 86.1396C358.18 86.1396 359.17 86.1396 360.19 86.1396C359.616 90.011 357.703 92.2214 355.19 95.1396C354.53 94.8096 353.87 94.4796 353.19 94.1396C353.19 92.4896 353.19 90.8396 353.19 89.1396C352.53 88.8096 351.87 88.4796 351.19 88.1396C351.19 85.4931 352.171 83.5588 353.19 81.1396Z" fill="currentColor"/>
<path d="M229.19 109.14C230.18 109.47 231.17 109.8 232.19 110.14C234.486 123.773 234.486 123.773 234.19 130.14C233.86 130.14 233.53 130.14 233.19 130.14C232.53 126.84 231.87 123.54 231.19 120.14C230.53 122.78 229.87 125.42 229.19 128.14C228.86 128.14 228.53 128.14 228.19 128.14C228.163 125.348 228.143 122.556 228.127 119.765C228.119 118.971 228.11 118.177 228.102 117.358C228.076 111.366 228.076 111.366 229.19 109.14Z" fill="currentColor"/>
<path d="M199.19 330.14C201.523 330.097 203.857 330.099 206.19 330.14C206.52 330.47 206.85 330.8 207.19 331.14C208.701 331.531 210.224 331.879 211.752 332.202C212.578 332.379 213.405 332.555 214.256 332.737C214.894 332.87 215.532 333.003 216.19 333.14C216.19 333.8 216.19 334.46 216.19 335.14C213.919 335.167 211.648 335.186 209.377 335.202C207.48 335.22 207.48 335.22 205.545 335.237C202.19 335.14 202.19 335.14 199.19 334.14C199.19 332.82 199.19 331.5 199.19 330.14Z" fill="currentColor"/>
<path d="M272.19 170.14C274.899 170.254 277.606 170.381 280.315 170.515C281.075 170.546 281.836 170.577 282.619 170.608C287.136 170.842 290.931 171.466 295.19 173.14C294.86 174.13 294.53 175.12 294.19 176.14C290.137 177.122 286.351 177.221 282.19 177.14C285.107 175.195 286.815 174.687 290.19 174.14C288.366 173.958 288.366 173.958 286.506 173.772C284.921 173.604 283.337 173.434 281.752 173.265C280.95 173.186 280.147 173.107 279.321 173.026C277.268 172.801 275.227 172.477 273.19 172.14C272.86 171.48 272.53 170.82 272.19 170.14Z" fill="currentColor"/>
<path d="M371.19 128.14C374.205 131.442 375.132 134.889 376.248 139.116C377.434 141.664 378.617 142.157 381.19 143.14C380.2 143.47 379.21 143.8 378.19 144.14C378.353 144.988 378.517 145.836 378.686 146.71C379.199 150.204 379.288 153.486 379.252 157.015C379.243 158.167 379.234 159.319 379.225 160.507C379.213 161.376 379.202 162.244 379.19 163.14C378.86 163.14 378.53 163.14 378.19 163.14C378.043 161.776 378.043 161.776 377.893 160.386C376.912 152.138 375.368 144.37 373.092 136.382C372.329 133.641 371.702 130.937 371.19 128.14Z" fill="currentColor"/>
<path d="M190.19 37.1396C190.85 37.4696 191.51 37.7996 192.19 38.1396C190.399 39.1162 188.609 40.0928 186.819 41.0693C185.024 42.0537 185.024 42.0537 184.19 44.1396C185.077 43.8096 185.963 43.4796 186.877 43.1396C189.899 42.2274 192.073 41.9563 195.19 42.1396C193.138 44.1909 191.92 44.7811 189.252 45.7646C188.563 46.025 187.873 46.2854 187.162 46.5537C185.19 47.1396 185.19 47.1396 182.19 47.1396C182.19 46.1496 182.19 45.1596 182.19 44.1396C179.88 44.4696 177.57 44.7996 175.19 45.1396C176.778 41.963 179.995 41.2717 183.127 39.9521C183.774 39.6666 184.42 39.3811 185.086 39.0869C186.761 38.3722 188.474 37.749 190.19 37.1396Z" fill="currentColor"/>
<path d="M187.19 2.13965C193.46 2.13965 199.73 2.13965 206.19 2.13965C205.53 3.45965 204.87 4.77965 204.19 6.13965C199.9 6.13965 195.61 6.13965 191.19 6.13965C191.52 5.14965 191.85 4.15965 192.19 3.13965C190.54 3.46965 188.89 3.79965 187.19 4.13965C187.19 3.47965 187.19 2.81965 187.19 2.13965Z" fill="currentColor"/>
<path d="M226.19 206.14C226.52 206.14 226.85 206.14 227.19 206.14C227.672 209.118 228.15 212.098 228.627 215.077C228.762 215.908 228.897 216.739 229.035 217.595C229.807 222.433 230.459 227.257 230.928 232.134C231.197 234.193 231.648 236.137 232.19 238.14C231.2 238.14 230.21 238.14 229.19 238.14C227.75 233.821 227.545 229.471 227.127 224.952C227.036 224.031 226.945 223.11 226.852 222.161C226.345 216.793 226.095 211.531 226.19 206.14Z" fill="currentColor"/>
<path d="M337.19 365.14C339.17 365.14 341.15 365.14 343.19 365.14C338.502 370.312 332.872 374.129 327.19 378.14C326.86 377.15 326.53 376.16 326.19 375.14C329.014 372.211 331.911 369.555 335.19 367.14C335.85 367.14 336.51 367.14 337.19 367.14C337.19 366.48 337.19 365.82 337.19 365.14Z" fill="currentColor"/>
<path d="M204.19 329.14C209.743 329.784 215.202 330.64 220.69 331.702C221.417 331.841 222.144 331.979 222.893 332.122C224.659 332.459 226.424 332.799 228.19 333.14C228.19 333.8 228.19 334.46 228.19 335.14C224.23 335.14 220.27 335.14 216.19 335.14C216.19 334.48 216.19 333.82 216.19 333.14C215.575 333.102 214.96 333.065 214.326 333.026C213.518 332.961 212.71 332.895 211.877 332.827C211.077 332.769 210.276 332.711 209.451 332.651C206.827 332.058 205.881 331.182 204.19 329.14Z" fill="currentColor"/>
<path d="M296.19 38.1396C302.064 39.9345 307.96 41.8444 313.19 45.1396C313.52 45.7996 313.85 46.4596 314.19 47.1396C311.165 46.5514 308.169 45.9283 305.19 45.1396C303.426 44.7375 303.426 44.7375 301.627 44.3271C298.06 43.0947 297.009 42.3499 295.19 39.1396C295.52 38.8096 295.85 38.4796 296.19 38.1396Z" fill="currentColor"/>
<path d="M369.19 112.14C371.565 112.452 371.565 112.452 374.19 113.14C376.19 116.14 376.19 116.14 375.815 118.327C375.608 118.925 375.402 119.523 375.19 120.14C374.53 120.14 373.87 120.14 373.19 120.14C372.86 120.8 372.53 121.46 372.19 122.14C371.2 122.635 371.2 122.635 370.19 123.14C369.827 121.683 369.475 120.225 369.127 118.765C368.831 117.546 368.831 117.546 368.53 116.304C368.19 114.14 368.19 114.14 369.19 112.14Z" fill="currentColor"/>
<path d="M316.19 68.1396C315.86 68.4696 315.53 68.7996 315.19 69.1396C319.48 69.7996 323.77 70.4596 328.19 71.1396C328.19 71.7996 328.19 72.4596 328.19 73.1396C322.91 72.8096 317.63 72.4796 312.19 72.1396C312.19 71.4796 312.19 70.8196 312.19 70.1396C309.88 70.1396 307.57 70.1396 305.19 70.1396C305.19 69.4796 305.19 68.8196 305.19 68.1396C306.647 67.9447 308.106 67.759 309.565 67.5771C310.377 67.4727 311.189 67.3683 312.026 67.2607C314.19 67.1396 314.19 67.1396 316.19 68.1396Z" fill="currentColor"/>
<path d="M260.19 171.14C262.129 171.422 264.066 171.716 266.002 172.015C267.081 172.177 268.16 172.339 269.272 172.507C272.19 173.14 272.19 173.14 275.19 175.14C272.306 176.582 269.772 176.234 266.565 176.202C265.376 176.193 264.188 176.184 262.963 176.175C262.048 176.163 261.133 176.152 260.19 176.14C260.19 174.49 260.19 172.84 260.19 171.14Z" fill="currentColor"/>
<path d="M238.19 166.14C251.555 167.625 251.555 167.625 265.19 169.14C265.19 169.47 265.19 169.8 265.19 170.14C262.169 170.167 259.148 170.187 256.127 170.202C255.28 170.211 254.432 170.219 253.559 170.228C248.654 170.246 244.025 169.973 239.19 169.14C238.86 168.15 238.53 167.16 238.19 166.14Z" fill="currentColor"/>
<path d="M80.1897 187.14C81.1797 187.635 81.1797 187.635 82.1897 188.14C82.5197 195.07 82.8497 202 83.1897 209.14C82.1997 208.81 81.2097 208.48 80.1897 208.14C80.1897 201.21 80.1897 194.28 80.1897 187.14Z" fill="currentColor"/>
<path d="M319.19 51.1396C320.18 51.4696 321.17 51.7996 322.19 52.1396C322.19 52.7996 322.19 53.4596 322.19 54.1396C323.51 54.4696 324.83 54.7996 326.19 55.1396C326.19 56.4596 326.19 57.7796 326.19 59.1396C323.22 58.8096 320.25 58.4796 317.19 58.1396C317.19 56.4896 317.19 54.8396 317.19 53.1396C317.85 53.1396 318.51 53.1396 319.19 53.1396C319.19 52.4796 319.19 51.8196 319.19 51.1396Z" fill="currentColor"/>
<path d="M230.19 215.14C230.85 215.14 231.51 215.14 232.19 215.14C232.19 221.41 232.19 227.68 232.19 234.14C231.53 234.47 230.87 234.8 230.19 235.14C229.445 228.773 228.986 222.552 229.19 216.14C229.52 215.81 229.85 215.48 230.19 215.14Z" fill="currentColor"/>
<path d="M384.19 281.14C384.19 284.953 383.154 286.888 381.19 290.14C378.31 292.281 375.714 293.487 372.19 294.14C375.356 288.731 379.365 285.098 384.19 281.14Z" fill="currentColor"/>
<path d="M181.19 348.14C184.01 348.601 184.01 348.601 187.315 349.515C188.41 349.811 189.506 350.108 190.635 350.413C191.478 350.653 192.321 350.893 193.19 351.14C192.2 352.625 192.2 352.625 191.19 354.14C187.752 354.327 187.752 354.327 184.19 354.14C183.2 354.14 182.21 354.14 181.19 354.14C180.53 352.82 179.87 351.5 179.19 350.14C179.85 349.48 180.51 348.82 181.19 348.14Z" fill="currentColor"/>
<path d="M84.1897 200.14C84.5197 200.14 84.8497 200.14 85.1897 200.14C85.3599 201.072 85.53 202.004 85.7053 202.964C87.1759 210.7 88.954 218.062 91.5178 225.53C92.1897 228.14 92.1897 228.14 91.1897 231.14C86.488 220.857 83.7616 211.484 84.1897 200.14Z" fill="currentColor"/>
<path d="M349.19 263.14C349.52 263.8 349.85 264.46 350.19 265.14C351.51 264.48 352.83 263.82 354.19 263.14C352.72 266.538 350.809 268.789 348.19 271.39C347.488 272.096 346.787 272.802 346.065 273.53C344.19 275.14 344.19 275.14 342.19 275.14C343.747 270.469 346.274 267.053 349.19 263.14Z" fill="currentColor"/>
<path d="M338.19 89.1396C338.52 89.1396 338.85 89.1396 339.19 89.1396C339.426 94.9177 339.058 99.6529 337.19 105.14C336.2 104.81 335.21 104.48 334.19 104.14C333.087 99.7305 333.113 95.6558 333.19 91.1396C335.19 93.1396 335.19 93.1396 335.385 95.3037C335.35 96.5219 335.35 96.5219 335.315 97.7646C335.297 98.5819 335.279 99.3992 335.26 100.241C335.237 100.868 335.214 101.494 335.19 102.14C335.85 102.14 336.51 102.14 337.19 102.14C337.178 101.536 337.167 100.933 337.155 100.312C337.141 99.1127 337.141 99.1127 337.127 97.8896C337.116 97.1007 337.104 96.3118 337.092 95.499C337.186 93.2327 337.557 91.3108 338.19 89.1396Z" fill="currentColor"/>
<path d="M80.1897 83.1396C82.3147 83.5146 82.3147 83.5146 84.1897 84.1396C83.5008 87.5286 82.2025 90.3198 80.6272 93.3896C80.1722 94.2817 79.7171 95.1737 79.2483 96.0928C78.899 96.7682 78.5496 97.4437 78.1897 98.1396C77.8597 98.1396 77.5297 98.1396 77.1897 98.1396C76.0647 92.5146 76.0647 92.5146 77.1897 89.1396C79.7522 87.9521 79.7522 87.9521 82.1897 87.1396C80.8697 86.4796 79.5497 85.8196 78.1897 85.1396C78.8497 84.4796 79.5097 83.8196 80.1897 83.1396Z" fill="currentColor"/>
<path d="M64.1897 56.1396C64.8497 56.1396 65.5097 56.1396 66.1897 56.1396C66.1897 62.0996 66.1897 62.0996 64.1897 65.1396C61.2423 66.1904 58.2837 66.7131 55.1897 67.1396C56.8893 63.3707 58.922 61.6721 62.1897 59.1396C62.8497 58.1496 63.5097 57.1596 64.1897 56.1396Z" fill="currentColor"/>
<path d="M11.1897 274.14C11.8497 275.46 12.5097 276.78 13.1897 278.14C14.8397 277.81 16.4897 277.48 18.1897 277.14C19.5817 281.316 18.0129 283.274 16.1897 287.14C12.6196 283.407 12.0806 279.045 11.1897 274.14Z" fill="currentColor"/>
<path d="M146.19 64.1396C146.85 64.4696 147.51 64.7996 148.19 65.1396C147.2 66.6246 147.2 66.6246 146.19 68.1396C146.85 68.4696 147.51 68.7996 148.19 69.1396C146.736 70.3121 145.277 71.4775 143.815 72.6396C143.003 73.2893 142.19 73.939 141.354 74.6084C139.19 76.1396 139.19 76.1396 137.19 76.1396C138.589 71.688 140.791 69.2834 144.19 66.1396C144.85 65.4796 145.51 64.8196 146.19 64.1396Z" fill="currentColor"/>
<path d="M332.19 48.1396C332.52 48.1396 332.85 48.1396 333.19 48.1396C333.19 53.7496 333.19 59.3596 333.19 65.1396C330.425 66.5219 328.144 66.2349 325.065 66.2021C323.969 66.1931 322.873 66.1841 321.744 66.1748C320.48 66.1574 320.48 66.1574 319.19 66.1396C319.19 65.8096 319.19 65.4796 319.19 65.1396C324.635 64.1496 324.635 64.1496 330.19 63.1396C331.244 59.9772 331.502 57.2702 331.752 53.9521C331.836 52.8655 331.92 51.7788 332.006 50.6592C332.067 49.8277 332.127 48.9963 332.19 48.1396Z" fill="currentColor"/>
<path d="M18.1897 289.14C18.5197 289.8 18.8497 290.46 19.1897 291.14C19.8497 291.14 20.5097 291.14 21.1897 291.14C21.1897 291.8 21.1897 292.46 21.1897 293.14C22.1797 292.81 23.1697 292.48 24.1897 292.14C26.3147 299.765 26.3147 299.765 25.1897 303.14C24.5297 302.81 23.8697 302.48 23.1897 302.14C23.1897 300.82 23.1897 299.5 23.1897 298.14C22.5297 298.14 21.8697 298.14 21.1897 298.14C18.1897 292.515 18.1897 292.515 18.1897 289.14Z" fill="currentColor"/>
<path d="M215.19 31.1396C211.845 32.9505 208.439 34.1242 204.815 35.2646C203.714 35.6178 202.613 35.9711 201.479 36.335C198.242 37.1268 195.506 37.2899 192.19 37.1396C198.917 32.655 207.163 30.9036 215.19 31.1396Z" fill="currentColor"/>
<path d="M44.1897 78.1396C44.8497 78.4696 45.5097 78.7996 46.1897 79.1396C43.6572 83.2636 41.0942 87.2669 38.1897 91.1396C37.8803 91.8615 37.5709 92.5834 37.2522 93.3271C36.1897 95.1396 36.1897 95.1396 34.1233 95.7529C33.4852 95.8805 32.8471 96.0082 32.1897 96.1396C33.3143 94.3686 34.4394 92.5978 35.5647 90.8271C36.1912 89.841 36.8177 88.8549 37.4631 87.8389C38.6862 85.9268 39.9306 84.0282 41.1897 82.1396C41.8497 82.1396 42.5097 82.1396 43.1897 82.1396C43.5197 80.8196 43.8497 79.4996 44.1897 78.1396Z" fill="currentColor"/>
<path d="M101.19 58.1396C102.18 58.4696 103.17 58.7996 104.19 59.1396C98.0394 67.5861 98.0394 67.5861 94.1897 71.1396C94.1897 69.4896 94.1897 67.8396 94.1897 66.1396C94.8497 66.1396 95.5097 66.1396 96.1897 66.1396C96.5197 64.8196 96.8497 63.4996 97.1897 62.1396C98.1797 62.1396 99.1697 62.1396 100.19 62.1396C100.52 60.8196 100.85 59.4996 101.19 58.1396Z" fill="currentColor"/>
<path d="M113.19 387.14C115.5 387.47 117.81 387.8 120.19 388.14C120.19 389.46 120.19 390.78 120.19 392.14C120.85 392.14 121.51 392.14 122.19 392.14C122.19 392.8 122.19 393.46 122.19 394.14C117.971 393.66 115.393 392.973 112.19 390.14C112.52 389.15 112.85 388.16 113.19 387.14Z" fill="currentColor"/>
<path d="M3.18971 243.14C4.67471 244.13 4.67471 244.13 6.18971 245.14C5.85971 246.46 5.52971 247.78 5.18971 249.14C6.50971 249.8 7.82971 250.46 9.18971 251.14C8.52971 254.44 7.86971 257.74 7.18971 261.14C5.24088 258.216 4.70892 256.629 4.06471 253.265C3.89714 252.422 3.72956 251.579 3.5569 250.71C3.19092 248.148 3.12488 245.724 3.18971 243.14Z" fill="currentColor"/>
<path d="M353.19 67.1396C360.12 67.6346 360.12 67.6346 367.19 68.1396C366.86 68.7996 366.53 69.4596 366.19 70.1396C363.248 70.5537 363.248 70.5537 359.627 70.7646C358.43 70.8394 357.232 70.9142 355.998 70.9912C355.071 71.0402 354.145 71.0892 353.19 71.1396C353.19 69.8196 353.19 68.4996 353.19 67.1396Z" fill="currentColor"/>
<path d="M355.19 255.14C355.52 255.8 355.85 256.46 356.19 257.14C357.18 257.14 358.17 257.14 359.19 257.14C359.19 257.8 359.19 258.46 359.19 259.14C358.53 259.14 357.87 259.14 357.19 259.14C356.963 259.758 356.736 260.377 356.502 261.015C354.81 263.754 353.197 264.19 350.19 265.14C350.696 262.971 351.19 261.14 352.19 259.14C352.85 259.14 353.51 259.14 354.19 259.14C354.52 257.82 354.85 256.5 355.19 255.14Z" fill="currentColor"/>
<path d="M367.19 239.14C367.63 244.513 367.63 244.513 367.19 247.14C364.69 249.14 364.69 249.14 362.19 250.14C362.012 246.234 361.982 243.451 364.19 240.14C366.19 239.14 366.19 239.14 367.19 239.14Z" fill="currentColor"/>
<path d="M344.19 322.14C344.85 323.13 345.51 324.12 346.19 325.14C345.19 328.14 345.19 328.14 343.127 329.327C342.488 329.595 341.848 329.863 341.19 330.14C340.86 329.81 340.53 329.48 340.19 329.14C338.864 328.778 337.53 328.442 336.19 328.14C341.94 323.265 341.94 323.265 344.19 322.14Z" fill="currentColor"/>
<path d="M8.18971 252.14C9.17971 252.47 10.1697 252.8 11.1897 253.14C11.1897 254.79 11.1897 256.44 11.1897 258.14C10.5297 258.14 9.86971 258.14 9.18971 258.14C9.84971 260.12 10.5097 262.1 11.1897 264.14C10.5297 264.8 9.86971 265.46 9.18971 266.14C6.93902 261.638 6.94309 258.072 7.18971 253.14C7.51971 252.81 7.84971 252.48 8.18971 252.14Z" fill="currentColor"/>
<path d="M195.19 172.14C198.16 172.635 198.16 172.635 201.19 173.14C201.52 174.46 201.85 175.78 202.19 177.14C195.565 177.39 195.565 177.39 192.19 175.14C193.18 174.81 194.17 174.48 195.19 174.14C195.19 173.48 195.19 172.82 195.19 172.14Z" fill="currentColor"/>
<path d="M223.19 165.14C223.52 166.13 223.85 167.12 224.19 168.14C217.407 169.56 211.123 170.367 204.19 170.14C204.19 169.81 204.19 169.48 204.19 169.14C205.324 168.995 206.458 168.851 207.627 168.702C210.997 168.528 210.997 168.528 212.19 167.14C213.664 166.932 215.145 166.772 216.627 166.64C220.035 166.348 220.035 166.348 223.19 165.14Z" fill="currentColor"/>
<path d="M335.19 35.1396C335.85 35.1396 336.51 35.1396 337.19 35.1396C337.298 36.7423 337.375 38.3471 337.44 39.9521C337.486 40.8455 337.533 41.7388 337.58 42.6592C337.19 45.1396 337.19 45.1396 333.19 48.1396C333.19 44.8396 333.19 41.5396 333.19 38.1396C333.85 38.1396 334.51 38.1396 335.19 38.1396C335.19 37.1496 335.19 36.1596 335.19 35.1396Z" fill="currentColor"/>
<path d="M186.19 324.14C190.383 324.788 194.455 325.652 198.565 326.702C199.624 326.972 200.684 327.241 201.776 327.519C202.572 327.724 203.369 327.928 204.19 328.14C204.19 328.47 204.19 328.8 204.19 329.14C201.941 329.275 199.691 329.372 197.44 329.452C196.187 329.51 194.934 329.568 193.643 329.628C190.19 329.14 190.19 329.14 187.737 326.62C187.226 325.802 186.716 324.983 186.19 324.14Z" fill="currentColor"/>
<path d="M363.19 311.14C362.53 311.8 361.87 312.46 361.19 313.14C360.53 313.14 359.87 313.14 359.19 313.14C356.437 315.548 354.63 317.778 353.19 321.14C352.53 319.16 351.87 317.18 351.19 315.14C352.62 314.273 354.059 313.422 355.502 312.577C356.703 311.864 356.703 311.864 357.928 311.136C360.19 310.14 360.19 310.14 363.19 311.14Z" fill="currentColor"/>
<path d="M18.1897 134.14C16.8711 138.755 14.9762 142.239 12.1897 146.14C10.858 142.144 11.771 140.041 13.1897 136.14C16.1897 134.14 16.1897 134.14 18.1897 134.14Z" fill="currentColor"/>
<path d="M166.19 53.1396C166.19 54.1296 166.19 55.1196 166.19 56.1396C159.44 60.1396 159.44 60.1396 157.19 60.1396C157.52 58.4896 157.85 56.8396 158.19 55.1396C163.94 53.1396 163.94 53.1396 166.19 53.1396Z" fill="currentColor"/>
<path d="M106.19 28.1396C106.52 29.4596 106.85 30.7796 107.19 32.1396C106.2 32.6346 106.2 32.6346 105.19 33.1396C104.2 32.8096 103.21 32.4796 102.19 32.1396C101.86 33.1296 101.53 34.1196 101.19 35.1396C99.1272 35.8271 99.1272 35.8271 97.1897 36.1396C96.8597 35.1496 96.5297 34.1596 96.1897 33.1396C99.4897 31.4896 102.79 29.8396 106.19 28.1396Z" fill="currentColor"/>
<path d="M122.19 19.1396C122.85 19.4696 123.51 19.7996 124.19 20.1396C123.86 20.779 123.53 21.4184 123.19 22.0771C122.117 23.9076 122.117 23.9076 122.19 25.1396C119.88 24.8096 117.57 24.4796 115.19 24.1396C114.86 25.1296 114.53 26.1196 114.19 27.1396C112.87 26.8096 111.55 26.4796 110.19 26.1396C113.815 23.1396 113.815 23.1396 117.19 23.1396C117.19 22.4796 117.19 21.8196 117.19 21.1396C119.565 20.0771 119.565 20.0771 122.19 19.1396Z" fill="currentColor"/>
<path d="M230.19 115.14C230.52 115.14 230.85 115.14 231.19 115.14C232.043 118.814 232.298 122.184 232.252 125.952C232.243 126.928 232.234 127.904 232.225 128.909C232.213 129.645 232.202 130.381 232.19 131.14C231.2 130.81 230.21 130.48 229.19 130.14C229.52 125.19 229.85 120.24 230.19 115.14Z" fill="currentColor"/>
<path d="M74.1897 101.14C75.518 105.125 74.4217 106.54 72.7522 110.327C72.2791 111.414 71.806 112.501 71.3186 113.62C70.7598 114.867 70.7598 114.867 70.1897 116.14C69.1997 115.48 68.2097 114.82 67.1897 114.14C67.1897 112.82 67.1897 111.5 67.1897 110.14C67.7878 109.954 68.3859 109.768 69.0022 109.577C72.2895 107.417 72.8382 104.789 74.1897 101.14Z" fill="currentColor"/>
<path d="M71.1897 52.1396C72.1797 52.4696 73.1697 52.7996 74.1897 53.1396C73.5297 53.7996 72.8697 54.4596 72.1897 55.1396C71.4922 56.4571 70.8201 57.7888 70.1897 59.1396C69.5297 58.8096 68.8697 58.4796 68.1897 58.1396C67.8597 59.1296 67.5297 60.1196 67.1897 61.1396C66.1997 60.1496 65.2097 59.1596 64.1897 58.1396C64.8497 58.1396 65.5097 58.1396 66.1897 58.1396C66.1897 57.4796 66.1897 56.8196 66.1897 56.1396C68.5022 53.9521 68.5022 53.9521 71.1897 52.1396ZM64.1897 61.1396C66.1897 62.1396 66.1897 62.1396 66.1897 62.1396L64.1897 61.1396Z" fill="currentColor"/>
<path d="M213.19 1.13965C214.448 1.0984 215.706 1.05715 217.002 1.01465C217.71 0.991445 218.418 0.968242 219.147 0.944336C221.19 1.13965 221.19 1.13965 224.19 3.13965C221.127 4.92375 218.969 5.36845 215.44 5.26465C214.64 5.2466 213.841 5.22855 213.018 5.20996C212.415 5.18676 211.811 5.16355 211.19 5.13965C211.85 3.81965 212.51 2.49965 213.19 1.13965Z" fill="currentColor"/>
<path d="M275.19 172.14C280.47 172.47 285.75 172.8 291.19 173.14C290.86 173.8 290.53 174.46 290.19 175.14C286.206 176.311 282.315 176.221 278.19 176.14C279.18 175.48 280.17 174.82 281.19 174.14C278.22 173.645 278.22 173.645 275.19 173.14C275.19 172.81 275.19 172.48 275.19 172.14Z" fill="currentColor"/>
<path d="M394.19 294.14C394.85 294.14 395.51 294.14 396.19 294.14C394.964 298.192 393.491 301.583 391.19 305.14C390.86 304.48 390.53 303.82 390.19 303.14C390.52 302.48 390.85 301.82 391.19 301.14C390.2 300.81 389.21 300.48 388.19 300.14C389.479 298.764 390.817 297.432 392.19 296.14C392.85 296.14 393.51 296.14 394.19 296.14C394.19 295.48 394.19 294.82 394.19 294.14Z" fill="currentColor"/>
<path d="M182.19 44.1397C182.19 45.4597 182.19 46.7797 182.19 48.1397C179.55 48.4697 176.91 48.7997 174.19 49.1397C174.565 47.2022 174.565 47.2022 175.19 45.1397C177.652 43.9083 179.469 44.0681 182.19 44.1397Z" fill="currentColor"/>
<path d="M335.19 42.1396C337.342 45.3676 337.391 46.4237 337.19 50.1396C336.2 50.6346 336.2 50.6346 335.19 51.1396C335.19 53.4496 335.19 55.7596 335.19 58.1396C334.53 58.4696 333.87 58.7996 333.19 59.1396C332.821 47.618 332.821 47.618 335.19 42.1396Z" fill="currentColor"/>
<path d="M373.19 324.14C375.665 325.13 375.665 325.13 378.19 326.14C377.382 327.476 376.568 328.808 375.752 330.14C375.3 330.882 374.847 331.625 374.381 332.39C373.988 332.967 373.595 333.545 373.19 334.14C372.86 334.14 372.53 334.14 372.19 334.14C370.959 328.724 370.959 328.724 372.127 325.765C372.653 324.96 372.653 324.96 373.19 324.14Z" fill="currentColor"/>
<path d="M63.1897 217.14C65.609 219.559 65.9841 221.297 66.8772 224.577C67.1492 225.545 67.4212 226.513 67.7014 227.511C68.1897 230.14 68.1897 230.14 67.1897 233.14C66.5297 230.83 65.8697 228.52 65.1897 226.14C64.5297 226.14 63.8697 226.14 63.1897 226.14C63.1897 223.17 63.1897 220.2 63.1897 217.14Z" fill="currentColor"/>
<path d="M24.1897 109.14C26.1897 112.14 26.1897 112.14 25.8147 114.827C25.6084 115.59 25.4022 116.353 25.1897 117.14C24.5503 117.243 23.9109 117.346 23.2522 117.452C22.2313 117.792 22.2313 117.792 21.1897 118.14C20.8597 119.13 20.5297 120.12 20.1897 121.14C19.8597 120.48 19.5297 119.82 19.1897 119.14C20.1183 117.106 21.1272 115.107 22.1897 113.14C22.5816 112.356 22.9734 111.572 23.3772 110.765C23.6453 110.228 23.9134 109.692 24.1897 109.14Z" fill="currentColor"/>
<path d="M135.19 323.14C138.877 323.638 140.795 324.24 143.19 327.14C142.53 327.14 141.87 327.14 141.19 327.14C140.86 327.8 140.53 328.46 140.19 329.14C139.53 329.14 138.87 329.14 138.19 329.14C138.19 328.48 138.19 327.82 138.19 327.14C136.54 326.81 134.89 326.48 133.19 326.14C133.85 325.81 134.51 325.48 135.19 325.14C135.19 324.48 135.19 323.82 135.19 323.14Z" fill="currentColor"/>
<path d="M381.19 142.14C381.52 142.8 381.85 143.46 382.19 144.14C381.53 143.81 380.87 143.48 380.19 143.14C380.52 142.81 380.85 142.48 381.19 142.14ZM378.19 144.14C380.19 145.14 380.19 145.14 381.19 147.14C382.18 147.47 383.17 147.8 384.19 148.14C384.19 149.46 384.19 150.78 384.19 152.14C383.53 151.81 382.87 151.48 382.19 151.14C381.2 151.8 380.21 152.46 379.19 153.14C378.86 150.17 378.53 147.2 378.19 144.14Z" fill="currentColor"/>
<path d="M18.1897 121.14C18.5197 121.8 18.8497 122.46 19.1897 123.14C19.8497 123.47 20.5097 123.8 21.1897 124.14C19.8147 126.64 19.8147 126.64 18.1897 129.14C17.5297 129.14 16.8697 129.14 16.1897 129.14C16.1897 130.13 16.1897 131.12 16.1897 132.14C15.5297 132.14 14.8697 132.14 14.1897 132.14C14.667 130.681 15.1466 129.223 15.6272 127.765C15.894 126.953 16.1609 126.14 16.4358 125.304C17.1897 123.14 17.1897 123.14 18.1897 121.14ZM21.1897 121.14C22.1797 121.635 22.1797 121.635 23.1897 122.14C22.1997 122.635 22.1997 122.635 21.1897 123.14C21.1897 122.48 21.1897 121.82 21.1897 121.14Z" fill="currentColor"/>
<path d="M306.252 48.8271C308.175 50.1295 309.703 51.3555 311.19 53.1396C311.19 53.7996 311.19 54.4596 311.19 55.1396C307.137 53.9144 303.746 52.4408 300.19 50.1396C303.604 47.9445 303.604 47.9445 306.252 48.8271Z" fill="currentColor"/>
<path d="M362.19 341.14C362.85 341.14 363.51 341.14 364.19 341.14C364.52 342.13 364.85 343.12 365.19 344.14C364.53 344.14 363.87 344.14 363.19 344.14C362.901 344.738 362.612 345.336 362.315 345.952C361.19 348.14 361.19 348.14 359.19 351.14C358.53 351.14 357.87 351.14 357.19 351.14C357.19 349.49 357.19 347.84 357.19 346.14C358.84 345.81 360.49 345.48 362.19 345.14C361.86 344.15 361.53 343.16 361.19 342.14C361.52 341.81 361.85 341.48 362.19 341.14Z" fill="currentColor"/>
<path d="M11.1897 270.14C13.0647 270.265 13.0647 270.265 15.1897 271.14C16.4397 274.202 16.4397 274.202 17.1897 277.14C15.8697 277.47 14.5497 277.8 13.1897 278.14C11.4251 275.052 11.1897 273.907 11.1897 270.14Z" fill="currentColor"/>
<path d="M412.19 185.14C412.85 185.14 413.51 185.14 414.19 185.14C414.271 186.764 414.329 188.389 414.377 190.015C414.412 190.92 414.447 191.824 414.483 192.757C414.386 193.543 414.289 194.329 414.19 195.14C413.2 195.8 412.21 196.46 411.19 197.14C411.163 195.327 411.143 193.515 411.127 191.702C411.116 190.693 411.104 189.683 411.092 188.644C411.19 186.14 411.19 186.14 412.19 185.14Z" fill="currentColor"/>
<path d="M346.19 78.1396C349.16 78.6346 349.16 78.6346 352.19 79.1396C351.86 80.7896 351.53 82.4396 351.19 84.1396C349.54 83.8096 347.89 83.4796 346.19 83.1396C346.19 81.4896 346.19 79.8396 346.19 78.1396Z" fill="currentColor"/>
<path d="M152.19 59.1396C152.19 60.1296 152.19 61.1196 152.19 62.1396C151.86 62.4696 151.53 62.7996 151.19 63.1396C151.85 63.7996 152.51 64.4596 153.19 65.1396C150.88 66.4596 148.57 67.7796 146.19 69.1396C146.19 65.5505 146.854 65.0311 149.19 62.4521C149.747 61.8295 150.303 61.2069 150.877 60.5654C151.31 60.0949 151.743 59.6244 152.19 59.1396Z" fill="currentColor"/>
<path d="M154.19 22.1396C150.23 24.1196 150.23 24.1196 146.19 26.1396C145.86 25.1496 145.53 24.1596 145.19 23.1396C146.19 21.1396 146.19 21.1396 148.002 20.3896C150.19 20.1396 150.19 20.1396 154.19 22.1396Z" fill="currentColor"/>
<path d="M280.19 395.14C281.18 395.14 282.17 395.14 283.19 395.14C283.52 396.13 283.85 397.12 284.19 398.14C283.53 398.14 282.87 398.14 282.19 398.14C282.19 398.8 282.19 399.46 282.19 400.14C281.2 400.14 280.21 400.14 279.19 400.14C279.19 400.8 279.19 401.46 279.19 402.14C278.2 401.81 277.21 401.48 276.19 401.14C276.52 400.15 276.85 399.16 277.19 398.14C277.85 398.14 278.51 398.14 279.19 398.14C279.52 397.15 279.85 396.16 280.19 395.14Z" fill="currentColor"/>
<path d="M92.1897 274.14C95.3467 278.048 98.1897 282.001 98.1897 287.14C97.5297 287.14 96.8697 287.14 96.1897 287.14C93.2392 282.53 91.64 279.774 92.1897 274.14Z" fill="currentColor"/>
<path d="M102.19 253.14C105.108 255.766 107.135 258.809 109.19 262.14C109.19 262.8 109.19 263.46 109.19 264.14C106.722 262.988 105.142 262.092 103.19 260.14C102.789 257.817 102.45 255.482 102.19 253.14Z" fill="currentColor"/>
<path d="M166.19 49.1396C166.85 49.4696 167.51 49.7996 168.19 50.1396C167.86 51.1296 167.53 52.1196 167.19 53.1396C168.51 52.8096 169.83 52.4796 171.19 52.1396C169.815 53.6396 169.815 53.6396 168.19 55.1396C167.53 55.1396 166.87 55.1396 166.19 55.1396C166.19 54.4796 166.19 53.8196 166.19 53.1396C163.88 53.7996 161.57 54.4596 159.19 55.1396C161.447 52.8044 163.47 50.9526 166.19 49.1396Z" fill="currentColor"/>
<path d="M193.19 40.1396C191.215 42.6622 190.222 43.1326 187.002 43.8271C185.61 43.9818 185.61 43.9818 184.19 44.1396C185.002 42.2021 185.002 42.2021 186.19 40.1396C189.323 39.0952 190.179 39.2054 193.19 40.1396Z" fill="currentColor"/>
<path d="M316.19 340.14C314.82 343.301 314.201 344.132 311.19 346.14C308.502 345.765 308.502 345.765 306.19 345.14C306.52 344.48 306.85 343.82 307.19 343.14C308.51 343.14 309.83 343.14 311.19 343.14C311.19 342.48 311.19 341.82 311.19 341.14C314.19 340.14 314.19 340.14 316.19 340.14Z" fill="currentColor"/>
<path d="M85.1897 248.14C86.1797 248.47 87.1697 248.8 88.1897 249.14C88.5618 250.463 88.896 251.797 89.1897 253.14C89.8497 253.47 90.5097 253.8 91.1897 254.14C90.1997 254.47 89.2097 254.8 88.1897 255.14C88.1897 256.13 88.1897 257.12 88.1897 258.14C87.5297 258.14 86.8697 258.14 86.1897 258.14C85.8597 254.84 85.5297 251.54 85.1897 248.14Z" fill="currentColor"/>
<path d="M61.1897 216.14C61.8497 216.47 62.5097 216.8 63.1897 217.14C63.1897 220.11 63.1897 223.08 63.1897 226.14C61.8697 225.81 60.5497 225.48 59.1897 225.14C59.6755 222.017 60.1883 219.144 61.1897 216.14Z" fill="currentColor"/>
<path d="M6.1897 162.14C6.8497 162.47 7.5097 162.8 8.1897 163.14C8.682 169.54 8.682 169.54 6.1897 172.577C5.1997 173.351 5.1997 173.351 4.1897 174.14C4.3547 173.624 4.5197 173.108 4.6897 172.577C5.31319 169.952 5.31319 169.952 5.1897 166.452C5.1897 163.14 5.1897 163.14 6.1897 162.14Z" fill="currentColor"/>
<path d="M61.1897 131.14C62.1797 131.14 63.1697 131.14 64.1897 131.14C63.2261 141.698 63.2261 141.698 62.1897 146.14C61.8597 146.14 61.5297 146.14 61.1897 146.14C61.2129 145.369 61.2361 144.598 61.26 143.804C61.2781 142.801 61.2961 141.798 61.3147 140.765C61.3379 139.767 61.3611 138.769 61.385 137.741C61.4619 134.977 61.4619 134.977 59.1897 133.14C59.8497 133.14 60.5097 133.14 61.1897 133.14C61.1897 132.48 61.1897 131.82 61.1897 131.14Z" fill="currentColor"/>
<path d="M113.19 46.1396C114.18 46.4696 115.17 46.7996 116.19 47.1396C115.214 48.3092 114.234 49.4753 113.252 50.6396C112.707 51.2893 112.162 51.939 111.6 52.6084C111.135 53.1137 110.669 53.619 110.19 54.1396C109.86 54.1396 109.53 54.1396 109.19 54.1396C108.94 51.8271 108.94 51.8271 109.19 49.1396C111.002 47.2646 111.002 47.2646 113.19 46.1396Z" fill="currentColor"/>
<path d="M124.19 39.1397C122.796 42.5069 121.211 44.1256 118.19 46.1397C117.86 44.1597 117.53 42.1797 117.19 40.1397C119.652 38.9083 121.469 39.0681 124.19 39.1397Z" fill="currentColor"/>
<path d="M204.19 6.13965C202.275 6.64554 200.358 7.14414 198.44 7.63965C196.839 8.05731 196.839 8.05731 195.205 8.4834C192.19 9.13965 192.19 9.13965 188.19 9.13965C188.19 8.47965 188.19 7.81965 188.19 7.13965C190.104 6.77537 192.022 6.4236 193.94 6.07715C195.007 5.87993 196.074 5.6827 197.174 5.4795C199.937 5.16808 201.599 5.24051 204.19 6.13965Z" fill="currentColor"/>
<path d="M371.19 294.14C372.19 296.14 372.19 296.14 371.44 299.14C370.19 302.14 370.19 302.14 367.19 304.14C366.86 303.48 366.53 302.82 366.19 302.14C367.127 299.515 367.127 299.515 368.19 297.14C368.85 297.14 369.51 297.14 370.19 297.14C370.52 296.15 370.85 295.16 371.19 294.14Z" fill="currentColor"/>
<path d="M88.1897 255.14C88.8497 255.14 89.5097 255.14 90.1897 255.14C90.571 257.131 90.903 259.132 91.1897 261.14C90.8597 261.47 90.5297 261.8 90.1897 262.14C89.507 263.465 88.839 264.798 88.1897 266.14C86.933 263.234 86.1897 261.344 86.1897 258.14C86.8497 258.14 87.5097 258.14 88.1897 258.14C88.1897 257.15 88.1897 256.16 88.1897 255.14Z" fill="currentColor"/>
<path d="M385.19 178.14C385.19 181.11 385.19 184.08 385.19 187.14C384.2 187.47 383.21 187.8 382.19 188.14C382.19 185.17 382.19 182.2 382.19 179.14C384.19 178.14 384.19 178.14 385.19 178.14Z" fill="currentColor"/>
<path d="M89.1897 72.1396C89.8497 72.1396 90.5097 72.1396 91.1897 72.1396C90.7577 76.8914 89.862 79.0596 86.1897 82.1396C86.1897 81.1496 86.1897 80.1596 86.1897 79.1396C85.5297 78.8096 84.8697 78.4796 84.1897 78.1396C84.8497 77.8096 85.5097 77.4796 86.1897 77.1396C86.8497 77.4696 87.5097 77.7996 88.1897 78.1396C88.5197 76.1596 88.8497 74.1796 89.1897 72.1396Z" fill="currentColor"/>
<path d="M76.1897 46.1396C76.8497 46.4696 77.5097 46.7996 78.1897 47.1396C75.5512 50.7553 73.2368 53.168 69.1897 55.1396C68.1997 55.1396 67.2097 55.1396 66.1897 55.1396C69.4897 52.1696 72.7897 49.1996 76.1897 46.1396Z" fill="currentColor"/>
<path d="M287.19 396.14C287.52 396.8 287.85 397.46 288.19 398.14C286.215 400.662 285.222 401.133 282.002 401.827C280.61 401.982 280.61 401.982 279.19 402.14C279.19 401.48 279.19 400.82 279.19 400.14C280.18 400.14 281.17 400.14 282.19 400.14C282.19 399.48 282.19 398.82 282.19 398.14C283.84 397.48 285.49 396.82 287.19 396.14Z" fill="currentColor"/>
<path d="M287.19 350.14C290.315 349.952 290.315 349.952 293.19 350.14C293.52 350.8 293.85 351.46 294.19 352.14C291.618 353.759 290.513 354.184 287.44 353.765C286.697 353.558 285.955 353.352 285.19 353.14C285.85 352.15 286.51 351.16 287.19 350.14Z" fill="currentColor"/>
<path d="M353.19 317.14C352.86 318.79 352.53 320.44 352.19 322.14C350.54 321.81 348.89 321.48 347.19 321.14C347.19 319.82 347.19 318.5 347.19 317.14C349.681 315.894 350.601 316.363 353.19 317.14Z" fill="currentColor"/>
<path d="M109.19 264.14C112.444 266.974 113.71 268.826 114.19 273.14C111.752 272.765 111.752 272.765 109.19 272.14C108.86 271.48 108.53 270.82 108.19 270.14C108.85 269.81 109.51 269.48 110.19 269.14C109.86 267.49 109.53 265.84 109.19 264.14Z" fill="currentColor"/>
<path d="M34.1897 95.1396C34.5197 96.1296 34.8497 97.1196 35.1897 98.1396C34.1997 98.1396 33.2097 98.1396 32.1897 98.1396C32.1897 100.12 32.1897 102.1 32.1897 104.14C30.8697 104.14 29.5497 104.14 28.1897 104.14C29.5019 100.203 31.1088 97.9125 34.1897 95.1396Z" fill="currentColor"/>
<path d="M340.19 65.1396C341.448 65.0984 342.706 65.0571 344.002 65.0146C344.71 64.9914 345.418 64.9682 346.147 64.9443C348.19 65.1396 348.19 65.1396 351.19 67.1396C348.55 67.4696 345.91 67.7996 343.19 68.1396C343.19 68.7996 343.19 69.4596 343.19 70.1396C342.53 70.1396 341.87 70.1396 341.19 70.1396C340.86 68.4896 340.53 66.8396 340.19 65.1396Z" fill="currentColor"/>
<path d="M223.19 332.14C229.94 332.015 229.94 332.015 232.19 333.14C231.86 334.13 231.53 335.12 231.19 336.14C228.55 336.14 225.91 336.14 223.19 336.14C223.19 335.81 223.19 335.48 223.19 335.14C224.84 335.14 226.49 335.14 228.19 335.14C228.19 334.48 228.19 333.82 228.19 333.14C226.54 333.14 224.89 333.14 223.19 333.14C223.19 332.81 223.19 332.48 223.19 332.14Z" fill="currentColor"/>
<path d="M186.19 325.89C189.19 327.14 189.19 327.14 191.19 330.14C189.19 331.14 189.19 331.14 186.627 330.327C184.19 329.14 184.19 329.14 183.19 327.14C182.53 326.81 181.87 326.48 181.19 326.14C183.19 325.14 183.19 325.14 186.19 325.89Z" fill="currentColor"/>
<path d="M407.19 229.14C407.52 229.8 407.85 230.46 408.19 231.14C409.51 231.14 410.83 231.14 412.19 231.14C411.86 232.46 411.53 233.78 411.19 235.14C410.53 235.14 409.87 235.14 409.19 235.14C408.2 235.8 407.21 236.46 406.19 237.14C406.065 231.39 406.065 231.39 407.19 229.14Z" fill="currentColor"/>
<path d="M381.19 130.14C381.52 130.14 381.85 130.14 382.19 130.14C382.475 137.568 382.475 137.568 380.19 141.14C379.53 141.14 378.87 141.14 378.19 141.14C378.065 138.765 378.065 138.765 378.19 136.14C378.85 135.48 379.51 134.82 380.19 134.14C380.832 132.071 380.832 132.071 381.19 130.14Z" fill="currentColor"/>
<path d="M365.19 113.14C368.683 116.167 370.091 118.652 371.19 123.14C371.315 126.015 371.315 126.015 371.19 128.14C369.747 125.293 368.378 122.423 367.065 119.515C366.711 118.739 366.358 117.963 365.994 117.163C365.19 115.14 365.19 115.14 365.19 113.14Z" fill="currentColor"/>
<path d="M358.19 101.14C361.19 102.14 361.19 102.14 362.393 103.882C362.738 104.586 363.084 105.289 363.44 106.015C363.795 106.713 364.151 107.412 364.518 108.132C365.19 110.14 365.19 110.14 364.19 113.14C363.184 111.518 362.186 109.892 361.19 108.265C360.633 107.36 360.076 106.455 359.502 105.522C358.19 103.14 358.19 103.14 358.19 101.14Z" fill="currentColor"/>
<path d="M32.1897 98.1396C33.5097 98.4696 34.8297 98.7996 36.1897 99.1396C35.0022 102.077 35.0022 102.077 33.1897 105.14C30.5022 106.015 30.5022 106.015 28.1897 106.14C28.1897 105.48 28.1897 104.82 28.1897 104.14C29.1797 103.48 30.1697 102.82 31.1897 102.14C31.9135 100.08 31.9135 100.08 32.1897 98.1396Z" fill="currentColor"/>
<path d="M54.1897 67.1396C54.8497 68.1296 55.5097 69.1196 56.1897 70.1396C56.8497 70.1396 57.5097 70.1396 58.1897 70.1396C58.1897 70.7996 58.1897 71.4596 58.1897 72.1396C55.8797 72.7996 53.5697 73.4596 51.1897 74.1396C53.0647 68.2646 53.0647 68.2646 54.1897 67.1396Z" fill="currentColor"/>
<path d="M282.19 33.1396C287.026 34.1301 291.666 35.0966 296.19 37.1396C296.19 37.4696 296.19 37.7996 296.19 38.1396C290.534 38.7053 286.963 36.8536 282.19 34.1396C282.19 33.8096 282.19 33.4796 282.19 33.1396Z" fill="currentColor"/>
<path d="M204.19 329.14C209.199 329.755 214.196 330.411 219.19 331.14C219.19 331.47 219.19 331.8 219.19 332.14C217.253 332.221 215.315 332.279 213.377 332.327C212.298 332.362 211.219 332.397 210.108 332.433C207.19 332.14 207.19 332.14 205.303 330.628C204.752 329.891 204.752 329.891 204.19 329.14Z" fill="currentColor"/>
<path d="M78.1897 260.14C78.8497 260.47 79.5097 260.8 80.1897 261.14C80.1897 261.8 80.1897 262.46 80.1897 263.14C80.8497 263.8 81.5097 264.46 82.1897 265.14C80.2097 266.13 80.2097 266.13 78.1897 267.14C77.1997 266.15 76.2097 265.16 75.1897 264.14C75.5197 263.48 75.8497 262.82 76.1897 262.14C76.8497 262.14 77.5097 262.14 78.1897 262.14C78.1897 261.48 78.1897 260.82 78.1897 260.14Z" fill="currentColor"/>
<path d="M358.19 67.1396C362.48 67.1396 366.77 67.1396 371.19 67.1396C371.19 68.1296 371.19 69.1196 371.19 70.1396C369.54 70.1396 367.89 70.1396 366.19 70.1396C366.19 69.8096 366.19 69.4796 366.19 69.1396C363.55 68.8096 360.91 68.4796 358.19 68.1396C358.19 67.8096 358.19 67.4796 358.19 67.1396Z" fill="currentColor"/>
<path d="M64.1897 56.1396C64.8497 56.1396 65.5097 56.1396 66.1897 56.1396C66.1897 56.7996 66.1897 57.4596 66.1897 58.1396C65.5297 58.1396 64.8697 58.1396 64.1897 58.1396C63.9628 58.9234 63.7359 59.7071 63.5022 60.5146C62.1897 63.1396 62.1897 63.1396 59.5647 64.4521C58.7809 64.679 57.9972 64.9059 57.1897 65.1396C57.1897 64.4796 57.1897 63.8196 57.1897 63.1396C58.8435 61.7905 60.5114 60.4583 62.1897 59.1396C62.8497 58.1496 63.5097 57.1596 64.1897 56.1396Z" fill="currentColor"/>
<path d="M209.19 36.1396C212.82 36.1396 216.45 36.1396 220.19 36.1396C220.19 36.4696 220.19 36.7996 220.19 37.1396C210.78 39.4358 210.78 39.4358 206.19 39.1396C207.18 38.8096 208.17 38.4796 209.19 38.1396C209.19 37.4796 209.19 36.8196 209.19 36.1396Z" fill="currentColor"/>
<path d="M329.19 371.14C330.18 371.14 331.17 371.14 332.19 371.14C332.002 372.952 332.002 372.952 331.19 375.14C328.627 376.89 328.627 376.89 326.19 378.14C326.94 373.39 326.94 373.39 329.19 371.14Z" fill="currentColor"/>
<path d="M407.19 220.14C407.52 220.14 407.85 220.14 408.19 220.14C408.357 225.061 408.438 228.643 406.19 233.14C405.86 233.14 405.53 233.14 405.19 233.14C405.332 231.723 405.479 230.306 405.627 228.89C405.708 228.101 405.79 227.312 405.873 226.499C406.166 224.316 406.61 222.262 407.19 220.14Z" fill="currentColor"/>
<path d="M230.19 215.14C230.85 215.14 231.51 215.14 232.19 215.14C232.19 217.12 232.19 219.1 232.19 221.14C231.53 221.14 230.87 221.14 230.19 221.14C229.86 222.46 229.53 223.78 229.19 225.14C229.163 223.661 229.143 222.181 229.127 220.702C229.116 219.878 229.104 219.055 229.092 218.206C229.19 216.14 229.19 216.14 230.19 215.14Z" fill="currentColor"/>
<path d="M68.1897 116.14C69.3493 119.618 68.9643 120.482 67.7522 123.827C67.4647 124.635 67.1773 125.444 66.8811 126.276C66.5389 127.199 66.5389 127.199 66.1897 128.14C65.8597 128.14 65.5297 128.14 65.1897 128.14C65.1084 126.703 65.0504 125.265 65.0022 123.827C64.9674 123.027 64.9326 122.226 64.8967 121.401C65.2517 118.661 66.0834 117.848 68.1897 116.14Z" fill="currentColor"/>
<path d="M368.19 100.14C371.089 102.535 371.691 104.452 372.19 108.14C371.777 107.686 371.365 107.232 370.94 106.765C369.126 105.08 367.437 104.147 365.19 103.14C365.19 102.48 365.19 101.82 365.19 101.14C366.18 100.81 367.17 100.48 368.19 100.14Z" fill="currentColor"/>
<path d="M51.1897 79.1396C50.5297 79.1396 49.8697 79.1396 49.1897 79.1396C48.8597 79.7996 48.5297 80.4596 48.1897 81.1396C46.5467 82.5021 44.8815 83.8383 43.1897 85.1396C42.8597 84.4796 42.5297 83.8196 42.1897 83.1396C42.8497 83.1396 43.5097 83.1396 44.1897 83.1396C44.2928 82.5003 44.3959 81.8609 44.5022 81.2021C44.7291 80.5215 44.9559 79.8409 45.1897 79.1396C48.1897 78.1396 48.1897 78.1396 51.1897 79.1396Z" fill="currentColor"/>
<path d="M197.19 351.14C200.82 351.8 204.45 352.46 208.19 353.14C208.19 353.47 208.19 353.8 208.19 354.14C203.735 354.635 203.735 354.635 199.19 355.14C199.19 354.48 199.19 353.82 199.19 353.14C198.53 353.14 197.87 353.14 197.19 353.14C197.19 352.48 197.19 351.82 197.19 351.14Z" fill="currentColor"/>
<path d="M296.19 348.14C293.027 350.248 291.683 350.478 288.002 350.765C286.651 350.877 286.651 350.877 285.272 350.991C284.241 351.065 284.241 351.065 283.19 351.14C287.356 348.362 291.254 346.241 296.19 348.14Z" fill="currentColor"/>
<path d="M405.19 266.14C406.349 269.618 405.964 270.482 404.752 273.827C404.465 274.635 404.177 275.444 403.881 276.276C403.539 277.199 403.539 277.199 403.19 278.14C402.86 278.14 402.53 278.14 402.19 278.14C402.698 273.822 403.387 270.107 405.19 266.14Z" fill="currentColor"/>
<path d="M289.19 41.1396C290.815 43.6396 290.815 43.6396 292.19 46.1396C288.89 45.1496 285.59 44.1596 282.19 43.1396C282.19 42.8096 282.19 42.4796 282.19 42.1396C286.94 41.1396 286.94 41.1396 289.19 41.1396Z" fill="currentColor"/>
<path d="M298.19 390.14C301.16 390.635 301.16 390.635 304.19 391.14C301.795 394.039 299.877 394.641 296.19 395.14C296.19 394.48 296.19 393.82 296.19 393.14C296.85 393.14 297.51 393.14 298.19 393.14C298.19 392.15 298.19 391.16 298.19 390.14Z" fill="currentColor"/>
<path d="M89.1897 378.14C91.8297 378.47 94.4697 378.8 97.1897 379.14C97.5197 380.79 97.8497 382.44 98.1897 384.14C94.253 382.827 91.9625 381.221 89.1897 378.14Z" fill="currentColor"/>
<path d="M35.1897 324.14C35.8497 324.14 36.5097 324.14 37.1897 324.14C37.1897 324.8 37.1897 325.46 37.1897 326.14C38.1797 325.81 39.1697 325.48 40.1897 325.14C40.8497 325.8 41.5097 326.46 42.1897 327.14C41.5297 327.14 40.8697 327.14 40.1897 327.14C40.5197 328.79 40.8497 330.44 41.1897 332.14C36.3147 327.515 36.3147 327.515 35.1897 324.14Z" fill="currentColor"/>
<path d="M89.1897 266.14C89.8497 266.8 90.5097 267.46 91.1897 268.14C92.1797 268.14 93.1697 268.14 94.1897 268.14C93.5297 270.12 92.8697 272.1 92.1897 274.14C91.5297 273.81 90.8697 273.48 90.1897 273.14C89.7824 270.818 89.4453 268.483 89.1897 266.14Z" fill="currentColor"/>
<path d="M7.1897 243.14C7.8497 243.47 8.5097 243.8 9.1897 244.14C8.8597 246.12 8.5297 248.1 8.1897 250.14C7.1997 249.81 6.2097 249.48 5.1897 249.14C5.1897 247.82 5.1897 246.5 5.1897 245.14C5.8497 245.14 6.5097 245.14 7.1897 245.14C7.1897 244.48 7.1897 243.82 7.1897 243.14Z" fill="currentColor"/>
<path d="M376.19 206.14C376.52 206.14 376.85 206.14 377.19 206.14C377.315 213.765 377.315 213.765 376.19 217.14C375.53 217.14 374.87 217.14 374.19 217.14C375.19 209.711 375.19 209.711 376.19 206.14Z" fill="currentColor"/>
<path d="M146.19 64.1396C146.85 64.4696 147.51 64.7996 148.19 65.1396C147.2 66.6246 147.2 66.6246 146.19 68.1396C146.85 68.4696 147.51 68.7996 148.19 69.1396C146.21 70.1296 146.21 70.1296 144.19 71.1396C143.53 70.4796 142.87 69.8196 142.19 69.1396C143.51 67.4896 144.83 65.8396 146.19 64.1396Z" fill="currentColor"/>
<path d="M95.1897 35.1396C94.8597 36.1296 94.5297 37.1196 94.1897 38.1396C91.8797 38.4696 89.5697 38.7996 87.1897 39.1396C90.6897 35.1396 90.6897 35.1396 95.1897 35.1396Z" fill="currentColor"/>
<path d="M134.19 30.1396C135.84 30.1396 137.49 30.1396 139.19 30.1396C136.837 32.8639 134.565 33.9538 131.19 35.1396C131.19 34.1496 131.19 33.1596 131.19 32.1396C132.18 32.1396 133.17 32.1396 134.19 32.1396C134.19 31.4796 134.19 30.8196 134.19 30.1396Z" fill="currentColor"/>
<path d="M168.19 15.1397C165.504 17.8252 162.813 18.2002 159.19 19.1397C161.455 14.1233 162.914 13.89 168.19 15.1397Z" fill="currentColor"/>
<path d="M384.19 312.14C385.18 312.47 386.17 312.8 387.19 313.14C385.21 316.11 385.21 316.11 383.19 319.14C382.53 317.82 381.87 316.5 381.19 315.14C382.18 314.81 383.17 314.48 384.19 314.14C384.19 313.48 384.19 312.82 384.19 312.14Z" fill="currentColor"/>
<path d="M384.19 307.14C385.84 307.47 387.49 307.8 389.19 308.14C388.53 309.46 387.87 310.78 387.19 312.14C385.87 311.48 384.55 310.82 383.19 310.14C383.52 309.15 383.85 308.16 384.19 307.14Z" fill="currentColor"/>
<path d="M376.19 292.14C376.52 293.13 376.85 294.12 377.19 295.14C375.87 295.47 374.55 295.8 373.19 296.14C373.19 296.8 373.19 297.46 373.19 298.14C372.53 298.14 371.87 298.14 371.19 298.14C371.44 296.265 371.44 296.265 372.19 294.14C374.252 292.89 374.252 292.89 376.19 292.14Z" fill="currentColor"/>
<path d="M70.1897 238.14C72.1807 241.126 73.1309 243.737 74.1897 247.14C73.5297 247.14 72.8697 247.14 72.1897 247.14C72.1897 246.48 72.1897 245.82 72.1897 245.14C71.1997 244.81 70.2097 244.48 69.1897 244.14C69.5197 242.16 69.8497 240.18 70.1897 238.14Z" fill="currentColor"/>
<path d="M305.19 42.1396C311.94 43.7646 311.94 43.7646 314.19 47.1396C309.876 46.6603 308.024 45.3938 305.19 42.1396Z" fill="currentColor"/>
<path d="M107.19 25.1396C107.85 25.4696 108.51 25.7996 109.19 26.1396C104.893 30.1436 104.893 30.1436 103.19 31.1396C100.987 30.792 100.987 30.792 99.1897 30.1396C100.475 29.2758 101.768 28.4238 103.065 27.5771C104.144 26.8637 104.144 26.8637 105.244 26.1357C105.886 25.807 106.528 25.4783 107.19 25.1396Z" fill="currentColor"/>
<path d="M257.19 403.14C259.321 404.205 260.556 405.431 262.19 407.14C259.88 407.47 257.57 407.8 255.19 408.14C255.85 406.49 256.51 404.84 257.19 403.14Z" fill="currentColor"/>
<path d="M337.19 365.14C339.17 365.14 341.15 365.14 343.19 365.14C341.54 366.79 339.89 368.44 338.19 370.14C337.53 369.15 336.87 368.16 336.19 367.14C336.52 366.48 336.85 365.82 337.19 365.14Z" fill="currentColor"/>
<path d="M346.19 357.14C346.85 357.14 347.51 357.14 348.19 357.14C348.52 358.13 348.85 359.12 349.19 360.14C347.815 361.64 347.815 361.64 346.19 363.14C345.53 363.14 344.87 363.14 344.19 363.14C343.86 361.82 343.53 360.5 343.19 359.14C344.51 359.47 345.83 359.8 347.19 360.14C346.86 359.15 346.53 358.16 346.19 357.14Z" fill="currentColor"/>
<path d="M31.1897 310.14C32.6747 311.13 32.6747 311.13 34.1897 312.14C33.1997 312.14 32.2097 312.14 31.1897 312.14C31.1897 311.48 31.1897 310.82 31.1897 310.14ZM27.1897 311.14C28.5097 311.47 29.8297 311.8 31.1897 312.14C31.1897 313.79 31.1897 315.44 31.1897 317.14C28.9419 315.087 28.1875 314.133 27.1897 311.14Z" fill="currentColor"/>
<path d="M11.1897 274.14C11.8497 275.46 12.5097 276.78 13.1897 278.14C14.1797 278.14 15.1697 278.14 16.1897 278.14C15.5297 279.46 14.8697 280.78 14.1897 282.14C13.5297 281.81 12.8697 281.48 12.1897 281.14C11.7824 278.818 11.4453 276.483 11.1897 274.14Z" fill="currentColor"/>
<path d="M8.1897 152.14C9.1797 152.47 10.1697 152.8 11.1897 153.14C9.7047 157.1 9.7047 157.1 8.1897 161.14C7.8597 161.14 7.5297 161.14 7.1897 161.14C7.5197 158.17 7.8497 155.2 8.1897 152.14Z" fill="currentColor"/>
<path d="M197.19 39.1396C199.354 38.8467 199.354 38.8467 201.815 38.9521C202.632 38.9792 203.449 39.0063 204.291 39.0342C205.231 39.0864 205.231 39.0864 206.19 39.1396C206.19 39.4696 206.19 39.7996 206.19 40.1396C202.56 40.7996 198.93 41.4596 195.19 42.1396C195.85 41.1496 196.51 40.1596 197.19 39.1396Z" fill="currentColor"/>
<path d="M335.19 32.1396C336.18 32.4696 337.17 32.7996 338.19 33.1396C338.19 35.1196 338.19 37.0996 338.19 39.1396C337.86 37.8196 337.53 36.4996 337.19 35.1396C336.53 35.1396 335.87 35.1396 335.19 35.1396C334.86 36.1296 334.53 37.1196 334.19 38.1396C334.147 36.4735 334.149 34.8058 334.19 33.1396C334.52 32.8096 334.85 32.4796 335.19 32.1396Z" fill="currentColor"/>
</svg>
